G04 #@! TF.GenerationSoftware,KiCad,Pcbnew,(5.1.2-1)-1*
G04 #@! TF.CreationDate,2019-11-24T12:47:18+01:00*
G04 #@! TF.ProjectId,Amiga_DB23_RGBS_out,416d6967-615f-4444-9232-335f52474253,rev?*
G04 #@! TF.SameCoordinates,Original*
G04 #@! TF.FileFunction,Soldermask,Bot*
G04 #@! TF.FilePolarity,Negative*
%FSLAX46Y46*%
G04 Gerber Fmt 4.6, Leading zero omitted, Abs format (unit mm)*
G04 Created by KiCad (PCBNEW (5.1.2-1)-1) date 2019-11-24 12:47:18*
%MOMM*%
%LPD*%
G04 APERTURE LIST*
%ADD10C,0.100000*%
G04 APERTURE END LIST*
D10*
G36*
X114200443Y-62955519D02*
G01*
X114266627Y-62962037D01*
X114436466Y-63013557D01*
X114592991Y-63097222D01*
X114628729Y-63126552D01*
X114730186Y-63209814D01*
X114813448Y-63311271D01*
X114842778Y-63347009D01*
X114926443Y-63503534D01*
X114977963Y-63673373D01*
X114995359Y-63850000D01*
X114977963Y-64026627D01*
X114926443Y-64196466D01*
X114842778Y-64352991D01*
X114813448Y-64388729D01*
X114730186Y-64490186D01*
X114628729Y-64573448D01*
X114592991Y-64602778D01*
X114436466Y-64686443D01*
X114266627Y-64737963D01*
X114200442Y-64744482D01*
X114134260Y-64751000D01*
X114045740Y-64751000D01*
X113979558Y-64744482D01*
X113913373Y-64737963D01*
X113743534Y-64686443D01*
X113587009Y-64602778D01*
X113551271Y-64573448D01*
X113449814Y-64490186D01*
X113366552Y-64388729D01*
X113337222Y-64352991D01*
X113253557Y-64196466D01*
X113202037Y-64026627D01*
X113184641Y-63850000D01*
X113202037Y-63673373D01*
X113253557Y-63503534D01*
X113337222Y-63347009D01*
X113366552Y-63311271D01*
X113449814Y-63209814D01*
X113551271Y-63126552D01*
X113587009Y-63097222D01*
X113743534Y-63013557D01*
X113913373Y-62962037D01*
X113979557Y-62955519D01*
X114045740Y-62949000D01*
X114134260Y-62949000D01*
X114200443Y-62955519D01*
X114200443Y-62955519D01*
G37*
G36*
X111660443Y-62955519D02*
G01*
X111726627Y-62962037D01*
X111896466Y-63013557D01*
X112052991Y-63097222D01*
X112088729Y-63126552D01*
X112190186Y-63209814D01*
X112273448Y-63311271D01*
X112302778Y-63347009D01*
X112386443Y-63503534D01*
X112437963Y-63673373D01*
X112455359Y-63850000D01*
X112437963Y-64026627D01*
X112386443Y-64196466D01*
X112302778Y-64352991D01*
X112273448Y-64388729D01*
X112190186Y-64490186D01*
X112088729Y-64573448D01*
X112052991Y-64602778D01*
X111896466Y-64686443D01*
X111726627Y-64737963D01*
X111660442Y-64744482D01*
X111594260Y-64751000D01*
X111505740Y-64751000D01*
X111439558Y-64744482D01*
X111373373Y-64737963D01*
X111203534Y-64686443D01*
X111047009Y-64602778D01*
X111011271Y-64573448D01*
X110909814Y-64490186D01*
X110826552Y-64388729D01*
X110797222Y-64352991D01*
X110713557Y-64196466D01*
X110662037Y-64026627D01*
X110644641Y-63850000D01*
X110662037Y-63673373D01*
X110713557Y-63503534D01*
X110797222Y-63347009D01*
X110826552Y-63311271D01*
X110909814Y-63209814D01*
X111011271Y-63126552D01*
X111047009Y-63097222D01*
X111203534Y-63013557D01*
X111373373Y-62962037D01*
X111439557Y-62955519D01*
X111505740Y-62949000D01*
X111594260Y-62949000D01*
X111660443Y-62955519D01*
X111660443Y-62955519D01*
G37*
G36*
X109120443Y-62955519D02*
G01*
X109186627Y-62962037D01*
X109356466Y-63013557D01*
X109512991Y-63097222D01*
X109548729Y-63126552D01*
X109650186Y-63209814D01*
X109733448Y-63311271D01*
X109762778Y-63347009D01*
X109846443Y-63503534D01*
X109897963Y-63673373D01*
X109915359Y-63850000D01*
X109897963Y-64026627D01*
X109846443Y-64196466D01*
X109762778Y-64352991D01*
X109733448Y-64388729D01*
X109650186Y-64490186D01*
X109548729Y-64573448D01*
X109512991Y-64602778D01*
X109356466Y-64686443D01*
X109186627Y-64737963D01*
X109120442Y-64744482D01*
X109054260Y-64751000D01*
X108965740Y-64751000D01*
X108899558Y-64744482D01*
X108833373Y-64737963D01*
X108663534Y-64686443D01*
X108507009Y-64602778D01*
X108471271Y-64573448D01*
X108369814Y-64490186D01*
X108286552Y-64388729D01*
X108257222Y-64352991D01*
X108173557Y-64196466D01*
X108122037Y-64026627D01*
X108104641Y-63850000D01*
X108122037Y-63673373D01*
X108173557Y-63503534D01*
X108257222Y-63347009D01*
X108286552Y-63311271D01*
X108369814Y-63209814D01*
X108471271Y-63126552D01*
X108507009Y-63097222D01*
X108663534Y-63013557D01*
X108833373Y-62962037D01*
X108899557Y-62955519D01*
X108965740Y-62949000D01*
X109054260Y-62949000D01*
X109120443Y-62955519D01*
X109120443Y-62955519D01*
G37*
G36*
X106580443Y-62955519D02*
G01*
X106646627Y-62962037D01*
X106816466Y-63013557D01*
X106972991Y-63097222D01*
X107008729Y-63126552D01*
X107110186Y-63209814D01*
X107193448Y-63311271D01*
X107222778Y-63347009D01*
X107306443Y-63503534D01*
X107357963Y-63673373D01*
X107375359Y-63850000D01*
X107357963Y-64026627D01*
X107306443Y-64196466D01*
X107222778Y-64352991D01*
X107193448Y-64388729D01*
X107110186Y-64490186D01*
X107008729Y-64573448D01*
X106972991Y-64602778D01*
X106816466Y-64686443D01*
X106646627Y-64737963D01*
X106580442Y-64744482D01*
X106514260Y-64751000D01*
X106425740Y-64751000D01*
X106359558Y-64744482D01*
X106293373Y-64737963D01*
X106123534Y-64686443D01*
X105967009Y-64602778D01*
X105931271Y-64573448D01*
X105829814Y-64490186D01*
X105746552Y-64388729D01*
X105717222Y-64352991D01*
X105633557Y-64196466D01*
X105582037Y-64026627D01*
X105564641Y-63850000D01*
X105582037Y-63673373D01*
X105633557Y-63503534D01*
X105717222Y-63347009D01*
X105746552Y-63311271D01*
X105829814Y-63209814D01*
X105931271Y-63126552D01*
X105967009Y-63097222D01*
X106123534Y-63013557D01*
X106293373Y-62962037D01*
X106359557Y-62955519D01*
X106425740Y-62949000D01*
X106514260Y-62949000D01*
X106580443Y-62955519D01*
X106580443Y-62955519D01*
G37*
G36*
X104040443Y-62955519D02*
G01*
X104106627Y-62962037D01*
X104276466Y-63013557D01*
X104432991Y-63097222D01*
X104468729Y-63126552D01*
X104570186Y-63209814D01*
X104653448Y-63311271D01*
X104682778Y-63347009D01*
X104766443Y-63503534D01*
X104817963Y-63673373D01*
X104835359Y-63850000D01*
X104817963Y-64026627D01*
X104766443Y-64196466D01*
X104682778Y-64352991D01*
X104653448Y-64388729D01*
X104570186Y-64490186D01*
X104468729Y-64573448D01*
X104432991Y-64602778D01*
X104276466Y-64686443D01*
X104106627Y-64737963D01*
X104040442Y-64744482D01*
X103974260Y-64751000D01*
X103885740Y-64751000D01*
X103819558Y-64744482D01*
X103753373Y-64737963D01*
X103583534Y-64686443D01*
X103427009Y-64602778D01*
X103391271Y-64573448D01*
X103289814Y-64490186D01*
X103206552Y-64388729D01*
X103177222Y-64352991D01*
X103093557Y-64196466D01*
X103042037Y-64026627D01*
X103024641Y-63850000D01*
X103042037Y-63673373D01*
X103093557Y-63503534D01*
X103177222Y-63347009D01*
X103206552Y-63311271D01*
X103289814Y-63209814D01*
X103391271Y-63126552D01*
X103427009Y-63097222D01*
X103583534Y-63013557D01*
X103753373Y-62962037D01*
X103819557Y-62955519D01*
X103885740Y-62949000D01*
X103974260Y-62949000D01*
X104040443Y-62955519D01*
X104040443Y-62955519D01*
G37*
G36*
X101500443Y-62955519D02*
G01*
X101566627Y-62962037D01*
X101736466Y-63013557D01*
X101892991Y-63097222D01*
X101928729Y-63126552D01*
X102030186Y-63209814D01*
X102113448Y-63311271D01*
X102142778Y-63347009D01*
X102226443Y-63503534D01*
X102277963Y-63673373D01*
X102295359Y-63850000D01*
X102277963Y-64026627D01*
X102226443Y-64196466D01*
X102142778Y-64352991D01*
X102113448Y-64388729D01*
X102030186Y-64490186D01*
X101928729Y-64573448D01*
X101892991Y-64602778D01*
X101736466Y-64686443D01*
X101566627Y-64737963D01*
X101500442Y-64744482D01*
X101434260Y-64751000D01*
X101345740Y-64751000D01*
X101279558Y-64744482D01*
X101213373Y-64737963D01*
X101043534Y-64686443D01*
X100887009Y-64602778D01*
X100851271Y-64573448D01*
X100749814Y-64490186D01*
X100666552Y-64388729D01*
X100637222Y-64352991D01*
X100553557Y-64196466D01*
X100502037Y-64026627D01*
X100484641Y-63850000D01*
X100502037Y-63673373D01*
X100553557Y-63503534D01*
X100637222Y-63347009D01*
X100666552Y-63311271D01*
X100749814Y-63209814D01*
X100851271Y-63126552D01*
X100887009Y-63097222D01*
X101043534Y-63013557D01*
X101213373Y-62962037D01*
X101279557Y-62955519D01*
X101345740Y-62949000D01*
X101434260Y-62949000D01*
X101500443Y-62955519D01*
X101500443Y-62955519D01*
G37*
G36*
X98960443Y-62955519D02*
G01*
X99026627Y-62962037D01*
X99196466Y-63013557D01*
X99352991Y-63097222D01*
X99388729Y-63126552D01*
X99490186Y-63209814D01*
X99573448Y-63311271D01*
X99602778Y-63347009D01*
X99686443Y-63503534D01*
X99737963Y-63673373D01*
X99755359Y-63850000D01*
X99737963Y-64026627D01*
X99686443Y-64196466D01*
X99602778Y-64352991D01*
X99573448Y-64388729D01*
X99490186Y-64490186D01*
X99388729Y-64573448D01*
X99352991Y-64602778D01*
X99196466Y-64686443D01*
X99026627Y-64737963D01*
X98960442Y-64744482D01*
X98894260Y-64751000D01*
X98805740Y-64751000D01*
X98739558Y-64744482D01*
X98673373Y-64737963D01*
X98503534Y-64686443D01*
X98347009Y-64602778D01*
X98311271Y-64573448D01*
X98209814Y-64490186D01*
X98126552Y-64388729D01*
X98097222Y-64352991D01*
X98013557Y-64196466D01*
X97962037Y-64026627D01*
X97944641Y-63850000D01*
X97962037Y-63673373D01*
X98013557Y-63503534D01*
X98097222Y-63347009D01*
X98126552Y-63311271D01*
X98209814Y-63209814D01*
X98311271Y-63126552D01*
X98347009Y-63097222D01*
X98503534Y-63013557D01*
X98673373Y-62962037D01*
X98739557Y-62955519D01*
X98805740Y-62949000D01*
X98894260Y-62949000D01*
X98960443Y-62955519D01*
X98960443Y-62955519D01*
G37*
G36*
X114200442Y-60415518D02*
G01*
X114266627Y-60422037D01*
X114436466Y-60473557D01*
X114592991Y-60557222D01*
X114628729Y-60586552D01*
X114730186Y-60669814D01*
X114813448Y-60771271D01*
X114842778Y-60807009D01*
X114926443Y-60963534D01*
X114977963Y-61133373D01*
X114995359Y-61310000D01*
X114977963Y-61486627D01*
X114926443Y-61656466D01*
X114842778Y-61812991D01*
X114813448Y-61848729D01*
X114730186Y-61950186D01*
X114628729Y-62033448D01*
X114592991Y-62062778D01*
X114436466Y-62146443D01*
X114266627Y-62197963D01*
X114200442Y-62204482D01*
X114134260Y-62211000D01*
X114045740Y-62211000D01*
X113979558Y-62204482D01*
X113913373Y-62197963D01*
X113743534Y-62146443D01*
X113587009Y-62062778D01*
X113551271Y-62033448D01*
X113449814Y-61950186D01*
X113366552Y-61848729D01*
X113337222Y-61812991D01*
X113253557Y-61656466D01*
X113202037Y-61486627D01*
X113184641Y-61310000D01*
X113202037Y-61133373D01*
X113253557Y-60963534D01*
X113337222Y-60807009D01*
X113366552Y-60771271D01*
X113449814Y-60669814D01*
X113551271Y-60586552D01*
X113587009Y-60557222D01*
X113743534Y-60473557D01*
X113913373Y-60422037D01*
X113979558Y-60415518D01*
X114045740Y-60409000D01*
X114134260Y-60409000D01*
X114200442Y-60415518D01*
X114200442Y-60415518D01*
G37*
G36*
X111660442Y-60415518D02*
G01*
X111726627Y-60422037D01*
X111896466Y-60473557D01*
X112052991Y-60557222D01*
X112088729Y-60586552D01*
X112190186Y-60669814D01*
X112273448Y-60771271D01*
X112302778Y-60807009D01*
X112386443Y-60963534D01*
X112437963Y-61133373D01*
X112455359Y-61310000D01*
X112437963Y-61486627D01*
X112386443Y-61656466D01*
X112302778Y-61812991D01*
X112273448Y-61848729D01*
X112190186Y-61950186D01*
X112088729Y-62033448D01*
X112052991Y-62062778D01*
X111896466Y-62146443D01*
X111726627Y-62197963D01*
X111660442Y-62204482D01*
X111594260Y-62211000D01*
X111505740Y-62211000D01*
X111439558Y-62204482D01*
X111373373Y-62197963D01*
X111203534Y-62146443D01*
X111047009Y-62062778D01*
X111011271Y-62033448D01*
X110909814Y-61950186D01*
X110826552Y-61848729D01*
X110797222Y-61812991D01*
X110713557Y-61656466D01*
X110662037Y-61486627D01*
X110644641Y-61310000D01*
X110662037Y-61133373D01*
X110713557Y-60963534D01*
X110797222Y-60807009D01*
X110826552Y-60771271D01*
X110909814Y-60669814D01*
X111011271Y-60586552D01*
X111047009Y-60557222D01*
X111203534Y-60473557D01*
X111373373Y-60422037D01*
X111439558Y-60415518D01*
X111505740Y-60409000D01*
X111594260Y-60409000D01*
X111660442Y-60415518D01*
X111660442Y-60415518D01*
G37*
G36*
X109120442Y-60415518D02*
G01*
X109186627Y-60422037D01*
X109356466Y-60473557D01*
X109512991Y-60557222D01*
X109548729Y-60586552D01*
X109650186Y-60669814D01*
X109733448Y-60771271D01*
X109762778Y-60807009D01*
X109846443Y-60963534D01*
X109897963Y-61133373D01*
X109915359Y-61310000D01*
X109897963Y-61486627D01*
X109846443Y-61656466D01*
X109762778Y-61812991D01*
X109733448Y-61848729D01*
X109650186Y-61950186D01*
X109548729Y-62033448D01*
X109512991Y-62062778D01*
X109356466Y-62146443D01*
X109186627Y-62197963D01*
X109120442Y-62204482D01*
X109054260Y-62211000D01*
X108965740Y-62211000D01*
X108899558Y-62204482D01*
X108833373Y-62197963D01*
X108663534Y-62146443D01*
X108507009Y-62062778D01*
X108471271Y-62033448D01*
X108369814Y-61950186D01*
X108286552Y-61848729D01*
X108257222Y-61812991D01*
X108173557Y-61656466D01*
X108122037Y-61486627D01*
X108104641Y-61310000D01*
X108122037Y-61133373D01*
X108173557Y-60963534D01*
X108257222Y-60807009D01*
X108286552Y-60771271D01*
X108369814Y-60669814D01*
X108471271Y-60586552D01*
X108507009Y-60557222D01*
X108663534Y-60473557D01*
X108833373Y-60422037D01*
X108899558Y-60415518D01*
X108965740Y-60409000D01*
X109054260Y-60409000D01*
X109120442Y-60415518D01*
X109120442Y-60415518D01*
G37*
G36*
X106580442Y-60415518D02*
G01*
X106646627Y-60422037D01*
X106816466Y-60473557D01*
X106972991Y-60557222D01*
X107008729Y-60586552D01*
X107110186Y-60669814D01*
X107193448Y-60771271D01*
X107222778Y-60807009D01*
X107306443Y-60963534D01*
X107357963Y-61133373D01*
X107375359Y-61310000D01*
X107357963Y-61486627D01*
X107306443Y-61656466D01*
X107222778Y-61812991D01*
X107193448Y-61848729D01*
X107110186Y-61950186D01*
X107008729Y-62033448D01*
X106972991Y-62062778D01*
X106816466Y-62146443D01*
X106646627Y-62197963D01*
X106580442Y-62204482D01*
X106514260Y-62211000D01*
X106425740Y-62211000D01*
X106359558Y-62204482D01*
X106293373Y-62197963D01*
X106123534Y-62146443D01*
X105967009Y-62062778D01*
X105931271Y-62033448D01*
X105829814Y-61950186D01*
X105746552Y-61848729D01*
X105717222Y-61812991D01*
X105633557Y-61656466D01*
X105582037Y-61486627D01*
X105564641Y-61310000D01*
X105582037Y-61133373D01*
X105633557Y-60963534D01*
X105717222Y-60807009D01*
X105746552Y-60771271D01*
X105829814Y-60669814D01*
X105931271Y-60586552D01*
X105967009Y-60557222D01*
X106123534Y-60473557D01*
X106293373Y-60422037D01*
X106359558Y-60415518D01*
X106425740Y-60409000D01*
X106514260Y-60409000D01*
X106580442Y-60415518D01*
X106580442Y-60415518D01*
G37*
G36*
X104040442Y-60415518D02*
G01*
X104106627Y-60422037D01*
X104276466Y-60473557D01*
X104432991Y-60557222D01*
X104468729Y-60586552D01*
X104570186Y-60669814D01*
X104653448Y-60771271D01*
X104682778Y-60807009D01*
X104766443Y-60963534D01*
X104817963Y-61133373D01*
X104835359Y-61310000D01*
X104817963Y-61486627D01*
X104766443Y-61656466D01*
X104682778Y-61812991D01*
X104653448Y-61848729D01*
X104570186Y-61950186D01*
X104468729Y-62033448D01*
X104432991Y-62062778D01*
X104276466Y-62146443D01*
X104106627Y-62197963D01*
X104040442Y-62204482D01*
X103974260Y-62211000D01*
X103885740Y-62211000D01*
X103819558Y-62204482D01*
X103753373Y-62197963D01*
X103583534Y-62146443D01*
X103427009Y-62062778D01*
X103391271Y-62033448D01*
X103289814Y-61950186D01*
X103206552Y-61848729D01*
X103177222Y-61812991D01*
X103093557Y-61656466D01*
X103042037Y-61486627D01*
X103024641Y-61310000D01*
X103042037Y-61133373D01*
X103093557Y-60963534D01*
X103177222Y-60807009D01*
X103206552Y-60771271D01*
X103289814Y-60669814D01*
X103391271Y-60586552D01*
X103427009Y-60557222D01*
X103583534Y-60473557D01*
X103753373Y-60422037D01*
X103819558Y-60415518D01*
X103885740Y-60409000D01*
X103974260Y-60409000D01*
X104040442Y-60415518D01*
X104040442Y-60415518D01*
G37*
G36*
X101500442Y-60415518D02*
G01*
X101566627Y-60422037D01*
X101736466Y-60473557D01*
X101892991Y-60557222D01*
X101928729Y-60586552D01*
X102030186Y-60669814D01*
X102113448Y-60771271D01*
X102142778Y-60807009D01*
X102226443Y-60963534D01*
X102277963Y-61133373D01*
X102295359Y-61310000D01*
X102277963Y-61486627D01*
X102226443Y-61656466D01*
X102142778Y-61812991D01*
X102113448Y-61848729D01*
X102030186Y-61950186D01*
X101928729Y-62033448D01*
X101892991Y-62062778D01*
X101736466Y-62146443D01*
X101566627Y-62197963D01*
X101500442Y-62204482D01*
X101434260Y-62211000D01*
X101345740Y-62211000D01*
X101279558Y-62204482D01*
X101213373Y-62197963D01*
X101043534Y-62146443D01*
X100887009Y-62062778D01*
X100851271Y-62033448D01*
X100749814Y-61950186D01*
X100666552Y-61848729D01*
X100637222Y-61812991D01*
X100553557Y-61656466D01*
X100502037Y-61486627D01*
X100484641Y-61310000D01*
X100502037Y-61133373D01*
X100553557Y-60963534D01*
X100637222Y-60807009D01*
X100666552Y-60771271D01*
X100749814Y-60669814D01*
X100851271Y-60586552D01*
X100887009Y-60557222D01*
X101043534Y-60473557D01*
X101213373Y-60422037D01*
X101279558Y-60415518D01*
X101345740Y-60409000D01*
X101434260Y-60409000D01*
X101500442Y-60415518D01*
X101500442Y-60415518D01*
G37*
G36*
X98960442Y-60415518D02*
G01*
X99026627Y-60422037D01*
X99196466Y-60473557D01*
X99352991Y-60557222D01*
X99388729Y-60586552D01*
X99490186Y-60669814D01*
X99573448Y-60771271D01*
X99602778Y-60807009D01*
X99686443Y-60963534D01*
X99737963Y-61133373D01*
X99755359Y-61310000D01*
X99737963Y-61486627D01*
X99686443Y-61656466D01*
X99602778Y-61812991D01*
X99573448Y-61848729D01*
X99490186Y-61950186D01*
X99388729Y-62033448D01*
X99352991Y-62062778D01*
X99196466Y-62146443D01*
X99026627Y-62197963D01*
X98960442Y-62204482D01*
X98894260Y-62211000D01*
X98805740Y-62211000D01*
X98739558Y-62204482D01*
X98673373Y-62197963D01*
X98503534Y-62146443D01*
X98347009Y-62062778D01*
X98311271Y-62033448D01*
X98209814Y-61950186D01*
X98126552Y-61848729D01*
X98097222Y-61812991D01*
X98013557Y-61656466D01*
X97962037Y-61486627D01*
X97944641Y-61310000D01*
X97962037Y-61133373D01*
X98013557Y-60963534D01*
X98097222Y-60807009D01*
X98126552Y-60771271D01*
X98209814Y-60669814D01*
X98311271Y-60586552D01*
X98347009Y-60557222D01*
X98503534Y-60473557D01*
X98673373Y-60422037D01*
X98739558Y-60415518D01*
X98805740Y-60409000D01*
X98894260Y-60409000D01*
X98960442Y-60415518D01*
X98960442Y-60415518D01*
G37*
G36*
X118138062Y-55078181D02*
G01*
X118172981Y-55088774D01*
X118205163Y-55105976D01*
X118233373Y-55129127D01*
X118256524Y-55157337D01*
X118273726Y-55189519D01*
X118284319Y-55224438D01*
X118288500Y-55266895D01*
X118288500Y-56733105D01*
X118284319Y-56775562D01*
X118273726Y-56810481D01*
X118256524Y-56842663D01*
X118233373Y-56870873D01*
X118205163Y-56894024D01*
X118172981Y-56911226D01*
X118138062Y-56921819D01*
X118095605Y-56926000D01*
X116954395Y-56926000D01*
X116911938Y-56921819D01*
X116877019Y-56911226D01*
X116844837Y-56894024D01*
X116816627Y-56870873D01*
X116793476Y-56842663D01*
X116776274Y-56810481D01*
X116765681Y-56775562D01*
X116761500Y-56733105D01*
X116761500Y-55266895D01*
X116765681Y-55224438D01*
X116776274Y-55189519D01*
X116793476Y-55157337D01*
X116816627Y-55129127D01*
X116844837Y-55105976D01*
X116877019Y-55088774D01*
X116911938Y-55078181D01*
X116954395Y-55074000D01*
X118095605Y-55074000D01*
X118138062Y-55078181D01*
X118138062Y-55078181D01*
G37*
G36*
X121113062Y-55078181D02*
G01*
X121147981Y-55088774D01*
X121180163Y-55105976D01*
X121208373Y-55129127D01*
X121231524Y-55157337D01*
X121248726Y-55189519D01*
X121259319Y-55224438D01*
X121263500Y-55266895D01*
X121263500Y-56733105D01*
X121259319Y-56775562D01*
X121248726Y-56810481D01*
X121231524Y-56842663D01*
X121208373Y-56870873D01*
X121180163Y-56894024D01*
X121147981Y-56911226D01*
X121113062Y-56921819D01*
X121070605Y-56926000D01*
X119929395Y-56926000D01*
X119886938Y-56921819D01*
X119852019Y-56911226D01*
X119819837Y-56894024D01*
X119791627Y-56870873D01*
X119768476Y-56842663D01*
X119751274Y-56810481D01*
X119740681Y-56775562D01*
X119736500Y-56733105D01*
X119736500Y-55266895D01*
X119740681Y-55224438D01*
X119751274Y-55189519D01*
X119768476Y-55157337D01*
X119791627Y-55129127D01*
X119819837Y-55105976D01*
X119852019Y-55088774D01*
X119886938Y-55078181D01*
X119929395Y-55074000D01*
X121070605Y-55074000D01*
X121113062Y-55078181D01*
X121113062Y-55078181D01*
G37*
G36*
X112138062Y-55078181D02*
G01*
X112172981Y-55088774D01*
X112205163Y-55105976D01*
X112233373Y-55129127D01*
X112256524Y-55157337D01*
X112273726Y-55189519D01*
X112284319Y-55224438D01*
X112288500Y-55266895D01*
X112288500Y-56733105D01*
X112284319Y-56775562D01*
X112273726Y-56810481D01*
X112256524Y-56842663D01*
X112233373Y-56870873D01*
X112205163Y-56894024D01*
X112172981Y-56911226D01*
X112138062Y-56921819D01*
X112095605Y-56926000D01*
X110954395Y-56926000D01*
X110911938Y-56921819D01*
X110877019Y-56911226D01*
X110844837Y-56894024D01*
X110816627Y-56870873D01*
X110793476Y-56842663D01*
X110776274Y-56810481D01*
X110765681Y-56775562D01*
X110761500Y-56733105D01*
X110761500Y-55266895D01*
X110765681Y-55224438D01*
X110776274Y-55189519D01*
X110793476Y-55157337D01*
X110816627Y-55129127D01*
X110844837Y-55105976D01*
X110877019Y-55088774D01*
X110911938Y-55078181D01*
X110954395Y-55074000D01*
X112095605Y-55074000D01*
X112138062Y-55078181D01*
X112138062Y-55078181D01*
G37*
G36*
X115113062Y-55078181D02*
G01*
X115147981Y-55088774D01*
X115180163Y-55105976D01*
X115208373Y-55129127D01*
X115231524Y-55157337D01*
X115248726Y-55189519D01*
X115259319Y-55224438D01*
X115263500Y-55266895D01*
X115263500Y-56733105D01*
X115259319Y-56775562D01*
X115248726Y-56810481D01*
X115231524Y-56842663D01*
X115208373Y-56870873D01*
X115180163Y-56894024D01*
X115147981Y-56911226D01*
X115113062Y-56921819D01*
X115070605Y-56926000D01*
X113929395Y-56926000D01*
X113886938Y-56921819D01*
X113852019Y-56911226D01*
X113819837Y-56894024D01*
X113791627Y-56870873D01*
X113768476Y-56842663D01*
X113751274Y-56810481D01*
X113740681Y-56775562D01*
X113736500Y-56733105D01*
X113736500Y-55266895D01*
X113740681Y-55224438D01*
X113751274Y-55189519D01*
X113768476Y-55157337D01*
X113791627Y-55129127D01*
X113819837Y-55105976D01*
X113852019Y-55088774D01*
X113886938Y-55078181D01*
X113929395Y-55074000D01*
X115070605Y-55074000D01*
X115113062Y-55078181D01*
X115113062Y-55078181D01*
G37*
G36*
X93624333Y-53791000D02*
G01*
X91675667Y-53791000D01*
X91675667Y-50209000D01*
X93624333Y-50209000D01*
X93624333Y-53791000D01*
X93624333Y-53791000D01*
G37*
G36*
X96394333Y-53791000D02*
G01*
X94445667Y-53791000D01*
X94445667Y-50209000D01*
X96394333Y-50209000D01*
X96394333Y-53791000D01*
X96394333Y-53791000D01*
G37*
G36*
X99164333Y-53791000D02*
G01*
X97215667Y-53791000D01*
X97215667Y-50209000D01*
X99164333Y-50209000D01*
X99164333Y-53791000D01*
X99164333Y-53791000D01*
G37*
G36*
X101934333Y-53791000D02*
G01*
X99985667Y-53791000D01*
X99985667Y-50209000D01*
X101934333Y-50209000D01*
X101934333Y-53791000D01*
X101934333Y-53791000D01*
G37*
G36*
X104704333Y-53791000D02*
G01*
X102755667Y-53791000D01*
X102755667Y-50209000D01*
X104704333Y-50209000D01*
X104704333Y-53791000D01*
X104704333Y-53791000D01*
G37*
G36*
X107474333Y-53791000D02*
G01*
X105525667Y-53791000D01*
X105525667Y-50209000D01*
X107474333Y-50209000D01*
X107474333Y-53791000D01*
X107474333Y-53791000D01*
G37*
G36*
X110244333Y-53791000D02*
G01*
X108295667Y-53791000D01*
X108295667Y-50209000D01*
X110244333Y-50209000D01*
X110244333Y-53791000D01*
X110244333Y-53791000D01*
G37*
G36*
X113014333Y-53791000D02*
G01*
X111065667Y-53791000D01*
X111065667Y-50209000D01*
X113014333Y-50209000D01*
X113014333Y-53791000D01*
X113014333Y-53791000D01*
G37*
G36*
X115784333Y-53791000D02*
G01*
X113835667Y-53791000D01*
X113835667Y-50209000D01*
X115784333Y-50209000D01*
X115784333Y-53791000D01*
X115784333Y-53791000D01*
G37*
G36*
X118554333Y-53791000D02*
G01*
X116605667Y-53791000D01*
X116605667Y-50209000D01*
X118554333Y-50209000D01*
X118554333Y-53791000D01*
X118554333Y-53791000D01*
G37*
G36*
X121324333Y-53791000D02*
G01*
X119375667Y-53791000D01*
X119375667Y-50209000D01*
X121324333Y-50209000D01*
X121324333Y-53791000D01*
X121324333Y-53791000D01*
G37*
M02*
