G04 #@! TF.GenerationSoftware,KiCad,Pcbnew,(5.1.2-1)-1*
G04 #@! TF.CreationDate,2019-11-24T12:47:18+01:00*
G04 #@! TF.ProjectId,Amiga_DB23_RGBS_out,416d6967-615f-4444-9232-335f52474253,rev?*
G04 #@! TF.SameCoordinates,Original*
G04 #@! TF.FileFunction,Paste,Bot*
G04 #@! TF.FilePolarity,Positive*
%FSLAX46Y46*%
G04 Gerber Fmt 4.6, Leading zero omitted, Abs format (unit mm)*
G04 Created by KiCad (PCBNEW (5.1.2-1)-1) date 2019-11-24 12:47:18*
%MOMM*%
%LPD*%
G04 APERTURE LIST*
%ADD10C,0.100000*%
%ADD11C,1.425000*%
%ADD12R,1.846667X3.480000*%
G04 APERTURE END LIST*
D10*
G36*
X118012004Y-55126204D02*
G01*
X118036273Y-55129804D01*
X118060071Y-55135765D01*
X118083171Y-55144030D01*
X118105349Y-55154520D01*
X118126393Y-55167133D01*
X118146098Y-55181747D01*
X118164277Y-55198223D01*
X118180753Y-55216402D01*
X118195367Y-55236107D01*
X118207980Y-55257151D01*
X118218470Y-55279329D01*
X118226735Y-55302429D01*
X118232696Y-55326227D01*
X118236296Y-55350496D01*
X118237500Y-55375000D01*
X118237500Y-56625000D01*
X118236296Y-56649504D01*
X118232696Y-56673773D01*
X118226735Y-56697571D01*
X118218470Y-56720671D01*
X118207980Y-56742849D01*
X118195367Y-56763893D01*
X118180753Y-56783598D01*
X118164277Y-56801777D01*
X118146098Y-56818253D01*
X118126393Y-56832867D01*
X118105349Y-56845480D01*
X118083171Y-56855970D01*
X118060071Y-56864235D01*
X118036273Y-56870196D01*
X118012004Y-56873796D01*
X117987500Y-56875000D01*
X117062500Y-56875000D01*
X117037996Y-56873796D01*
X117013727Y-56870196D01*
X116989929Y-56864235D01*
X116966829Y-56855970D01*
X116944651Y-56845480D01*
X116923607Y-56832867D01*
X116903902Y-56818253D01*
X116885723Y-56801777D01*
X116869247Y-56783598D01*
X116854633Y-56763893D01*
X116842020Y-56742849D01*
X116831530Y-56720671D01*
X116823265Y-56697571D01*
X116817304Y-56673773D01*
X116813704Y-56649504D01*
X116812500Y-56625000D01*
X116812500Y-55375000D01*
X116813704Y-55350496D01*
X116817304Y-55326227D01*
X116823265Y-55302429D01*
X116831530Y-55279329D01*
X116842020Y-55257151D01*
X116854633Y-55236107D01*
X116869247Y-55216402D01*
X116885723Y-55198223D01*
X116903902Y-55181747D01*
X116923607Y-55167133D01*
X116944651Y-55154520D01*
X116966829Y-55144030D01*
X116989929Y-55135765D01*
X117013727Y-55129804D01*
X117037996Y-55126204D01*
X117062500Y-55125000D01*
X117987500Y-55125000D01*
X118012004Y-55126204D01*
X118012004Y-55126204D01*
G37*
D11*
X117525000Y-56000000D03*
D10*
G36*
X120987004Y-55126204D02*
G01*
X121011273Y-55129804D01*
X121035071Y-55135765D01*
X121058171Y-55144030D01*
X121080349Y-55154520D01*
X121101393Y-55167133D01*
X121121098Y-55181747D01*
X121139277Y-55198223D01*
X121155753Y-55216402D01*
X121170367Y-55236107D01*
X121182980Y-55257151D01*
X121193470Y-55279329D01*
X121201735Y-55302429D01*
X121207696Y-55326227D01*
X121211296Y-55350496D01*
X121212500Y-55375000D01*
X121212500Y-56625000D01*
X121211296Y-56649504D01*
X121207696Y-56673773D01*
X121201735Y-56697571D01*
X121193470Y-56720671D01*
X121182980Y-56742849D01*
X121170367Y-56763893D01*
X121155753Y-56783598D01*
X121139277Y-56801777D01*
X121121098Y-56818253D01*
X121101393Y-56832867D01*
X121080349Y-56845480D01*
X121058171Y-56855970D01*
X121035071Y-56864235D01*
X121011273Y-56870196D01*
X120987004Y-56873796D01*
X120962500Y-56875000D01*
X120037500Y-56875000D01*
X120012996Y-56873796D01*
X119988727Y-56870196D01*
X119964929Y-56864235D01*
X119941829Y-56855970D01*
X119919651Y-56845480D01*
X119898607Y-56832867D01*
X119878902Y-56818253D01*
X119860723Y-56801777D01*
X119844247Y-56783598D01*
X119829633Y-56763893D01*
X119817020Y-56742849D01*
X119806530Y-56720671D01*
X119798265Y-56697571D01*
X119792304Y-56673773D01*
X119788704Y-56649504D01*
X119787500Y-56625000D01*
X119787500Y-55375000D01*
X119788704Y-55350496D01*
X119792304Y-55326227D01*
X119798265Y-55302429D01*
X119806530Y-55279329D01*
X119817020Y-55257151D01*
X119829633Y-55236107D01*
X119844247Y-55216402D01*
X119860723Y-55198223D01*
X119878902Y-55181747D01*
X119898607Y-55167133D01*
X119919651Y-55154520D01*
X119941829Y-55144030D01*
X119964929Y-55135765D01*
X119988727Y-55129804D01*
X120012996Y-55126204D01*
X120037500Y-55125000D01*
X120962500Y-55125000D01*
X120987004Y-55126204D01*
X120987004Y-55126204D01*
G37*
D11*
X120500000Y-56000000D03*
D10*
G36*
X112012004Y-55126204D02*
G01*
X112036273Y-55129804D01*
X112060071Y-55135765D01*
X112083171Y-55144030D01*
X112105349Y-55154520D01*
X112126393Y-55167133D01*
X112146098Y-55181747D01*
X112164277Y-55198223D01*
X112180753Y-55216402D01*
X112195367Y-55236107D01*
X112207980Y-55257151D01*
X112218470Y-55279329D01*
X112226735Y-55302429D01*
X112232696Y-55326227D01*
X112236296Y-55350496D01*
X112237500Y-55375000D01*
X112237500Y-56625000D01*
X112236296Y-56649504D01*
X112232696Y-56673773D01*
X112226735Y-56697571D01*
X112218470Y-56720671D01*
X112207980Y-56742849D01*
X112195367Y-56763893D01*
X112180753Y-56783598D01*
X112164277Y-56801777D01*
X112146098Y-56818253D01*
X112126393Y-56832867D01*
X112105349Y-56845480D01*
X112083171Y-56855970D01*
X112060071Y-56864235D01*
X112036273Y-56870196D01*
X112012004Y-56873796D01*
X111987500Y-56875000D01*
X111062500Y-56875000D01*
X111037996Y-56873796D01*
X111013727Y-56870196D01*
X110989929Y-56864235D01*
X110966829Y-56855970D01*
X110944651Y-56845480D01*
X110923607Y-56832867D01*
X110903902Y-56818253D01*
X110885723Y-56801777D01*
X110869247Y-56783598D01*
X110854633Y-56763893D01*
X110842020Y-56742849D01*
X110831530Y-56720671D01*
X110823265Y-56697571D01*
X110817304Y-56673773D01*
X110813704Y-56649504D01*
X110812500Y-56625000D01*
X110812500Y-55375000D01*
X110813704Y-55350496D01*
X110817304Y-55326227D01*
X110823265Y-55302429D01*
X110831530Y-55279329D01*
X110842020Y-55257151D01*
X110854633Y-55236107D01*
X110869247Y-55216402D01*
X110885723Y-55198223D01*
X110903902Y-55181747D01*
X110923607Y-55167133D01*
X110944651Y-55154520D01*
X110966829Y-55144030D01*
X110989929Y-55135765D01*
X111013727Y-55129804D01*
X111037996Y-55126204D01*
X111062500Y-55125000D01*
X111987500Y-55125000D01*
X112012004Y-55126204D01*
X112012004Y-55126204D01*
G37*
D11*
X111525000Y-56000000D03*
D10*
G36*
X114987004Y-55126204D02*
G01*
X115011273Y-55129804D01*
X115035071Y-55135765D01*
X115058171Y-55144030D01*
X115080349Y-55154520D01*
X115101393Y-55167133D01*
X115121098Y-55181747D01*
X115139277Y-55198223D01*
X115155753Y-55216402D01*
X115170367Y-55236107D01*
X115182980Y-55257151D01*
X115193470Y-55279329D01*
X115201735Y-55302429D01*
X115207696Y-55326227D01*
X115211296Y-55350496D01*
X115212500Y-55375000D01*
X115212500Y-56625000D01*
X115211296Y-56649504D01*
X115207696Y-56673773D01*
X115201735Y-56697571D01*
X115193470Y-56720671D01*
X115182980Y-56742849D01*
X115170367Y-56763893D01*
X115155753Y-56783598D01*
X115139277Y-56801777D01*
X115121098Y-56818253D01*
X115101393Y-56832867D01*
X115080349Y-56845480D01*
X115058171Y-56855970D01*
X115035071Y-56864235D01*
X115011273Y-56870196D01*
X114987004Y-56873796D01*
X114962500Y-56875000D01*
X114037500Y-56875000D01*
X114012996Y-56873796D01*
X113988727Y-56870196D01*
X113964929Y-56864235D01*
X113941829Y-56855970D01*
X113919651Y-56845480D01*
X113898607Y-56832867D01*
X113878902Y-56818253D01*
X113860723Y-56801777D01*
X113844247Y-56783598D01*
X113829633Y-56763893D01*
X113817020Y-56742849D01*
X113806530Y-56720671D01*
X113798265Y-56697571D01*
X113792304Y-56673773D01*
X113788704Y-56649504D01*
X113787500Y-56625000D01*
X113787500Y-55375000D01*
X113788704Y-55350496D01*
X113792304Y-55326227D01*
X113798265Y-55302429D01*
X113806530Y-55279329D01*
X113817020Y-55257151D01*
X113829633Y-55236107D01*
X113844247Y-55216402D01*
X113860723Y-55198223D01*
X113878902Y-55181747D01*
X113898607Y-55167133D01*
X113919651Y-55154520D01*
X113941829Y-55144030D01*
X113964929Y-55135765D01*
X113988727Y-55129804D01*
X114012996Y-55126204D01*
X114037500Y-55125000D01*
X114962500Y-55125000D01*
X114987004Y-55126204D01*
X114987004Y-55126204D01*
G37*
D11*
X114500000Y-56000000D03*
D12*
X92650000Y-52000000D03*
X95420000Y-52000000D03*
X98190000Y-52000000D03*
X100960000Y-52000000D03*
X103730000Y-52000000D03*
X106500000Y-52000000D03*
X109270000Y-52000000D03*
X112040000Y-52000000D03*
X114810000Y-52000000D03*
X117580000Y-52000000D03*
X120350000Y-52000000D03*
M02*
