G04 #@! TF.GenerationSoftware,KiCad,Pcbnew,(5.1.2-1)-1*
G04 #@! TF.CreationDate,2019-11-24T12:47:18+01:00*
G04 #@! TF.ProjectId,Amiga_DB23_RGBS_out,416d6967-615f-4444-9232-335f52474253,rev?*
G04 #@! TF.SameCoordinates,Original*
G04 #@! TF.FileFunction,Copper,L2,Bot*
G04 #@! TF.FilePolarity,Positive*
%FSLAX46Y46*%
G04 Gerber Fmt 4.6, Leading zero omitted, Abs format (unit mm)*
G04 Created by KiCad (PCBNEW (5.1.2-1)-1) date 2019-11-24 12:47:18*
%MOMM*%
%LPD*%
G04 APERTURE LIST*
%ADD10C,0.100000*%
%ADD11C,1.425000*%
%ADD12O,1.700000X1.700000*%
%ADD13R,1.846667X3.480000*%
%ADD14C,0.508000*%
%ADD15C,0.152400*%
G04 APERTURE END LIST*
D10*
G36*
X118012004Y-55126204D02*
G01*
X118036273Y-55129804D01*
X118060071Y-55135765D01*
X118083171Y-55144030D01*
X118105349Y-55154520D01*
X118126393Y-55167133D01*
X118146098Y-55181747D01*
X118164277Y-55198223D01*
X118180753Y-55216402D01*
X118195367Y-55236107D01*
X118207980Y-55257151D01*
X118218470Y-55279329D01*
X118226735Y-55302429D01*
X118232696Y-55326227D01*
X118236296Y-55350496D01*
X118237500Y-55375000D01*
X118237500Y-56625000D01*
X118236296Y-56649504D01*
X118232696Y-56673773D01*
X118226735Y-56697571D01*
X118218470Y-56720671D01*
X118207980Y-56742849D01*
X118195367Y-56763893D01*
X118180753Y-56783598D01*
X118164277Y-56801777D01*
X118146098Y-56818253D01*
X118126393Y-56832867D01*
X118105349Y-56845480D01*
X118083171Y-56855970D01*
X118060071Y-56864235D01*
X118036273Y-56870196D01*
X118012004Y-56873796D01*
X117987500Y-56875000D01*
X117062500Y-56875000D01*
X117037996Y-56873796D01*
X117013727Y-56870196D01*
X116989929Y-56864235D01*
X116966829Y-56855970D01*
X116944651Y-56845480D01*
X116923607Y-56832867D01*
X116903902Y-56818253D01*
X116885723Y-56801777D01*
X116869247Y-56783598D01*
X116854633Y-56763893D01*
X116842020Y-56742849D01*
X116831530Y-56720671D01*
X116823265Y-56697571D01*
X116817304Y-56673773D01*
X116813704Y-56649504D01*
X116812500Y-56625000D01*
X116812500Y-55375000D01*
X116813704Y-55350496D01*
X116817304Y-55326227D01*
X116823265Y-55302429D01*
X116831530Y-55279329D01*
X116842020Y-55257151D01*
X116854633Y-55236107D01*
X116869247Y-55216402D01*
X116885723Y-55198223D01*
X116903902Y-55181747D01*
X116923607Y-55167133D01*
X116944651Y-55154520D01*
X116966829Y-55144030D01*
X116989929Y-55135765D01*
X117013727Y-55129804D01*
X117037996Y-55126204D01*
X117062500Y-55125000D01*
X117987500Y-55125000D01*
X118012004Y-55126204D01*
X118012004Y-55126204D01*
G37*
D11*
X117525000Y-56000000D03*
D10*
G36*
X120987004Y-55126204D02*
G01*
X121011273Y-55129804D01*
X121035071Y-55135765D01*
X121058171Y-55144030D01*
X121080349Y-55154520D01*
X121101393Y-55167133D01*
X121121098Y-55181747D01*
X121139277Y-55198223D01*
X121155753Y-55216402D01*
X121170367Y-55236107D01*
X121182980Y-55257151D01*
X121193470Y-55279329D01*
X121201735Y-55302429D01*
X121207696Y-55326227D01*
X121211296Y-55350496D01*
X121212500Y-55375000D01*
X121212500Y-56625000D01*
X121211296Y-56649504D01*
X121207696Y-56673773D01*
X121201735Y-56697571D01*
X121193470Y-56720671D01*
X121182980Y-56742849D01*
X121170367Y-56763893D01*
X121155753Y-56783598D01*
X121139277Y-56801777D01*
X121121098Y-56818253D01*
X121101393Y-56832867D01*
X121080349Y-56845480D01*
X121058171Y-56855970D01*
X121035071Y-56864235D01*
X121011273Y-56870196D01*
X120987004Y-56873796D01*
X120962500Y-56875000D01*
X120037500Y-56875000D01*
X120012996Y-56873796D01*
X119988727Y-56870196D01*
X119964929Y-56864235D01*
X119941829Y-56855970D01*
X119919651Y-56845480D01*
X119898607Y-56832867D01*
X119878902Y-56818253D01*
X119860723Y-56801777D01*
X119844247Y-56783598D01*
X119829633Y-56763893D01*
X119817020Y-56742849D01*
X119806530Y-56720671D01*
X119798265Y-56697571D01*
X119792304Y-56673773D01*
X119788704Y-56649504D01*
X119787500Y-56625000D01*
X119787500Y-55375000D01*
X119788704Y-55350496D01*
X119792304Y-55326227D01*
X119798265Y-55302429D01*
X119806530Y-55279329D01*
X119817020Y-55257151D01*
X119829633Y-55236107D01*
X119844247Y-55216402D01*
X119860723Y-55198223D01*
X119878902Y-55181747D01*
X119898607Y-55167133D01*
X119919651Y-55154520D01*
X119941829Y-55144030D01*
X119964929Y-55135765D01*
X119988727Y-55129804D01*
X120012996Y-55126204D01*
X120037500Y-55125000D01*
X120962500Y-55125000D01*
X120987004Y-55126204D01*
X120987004Y-55126204D01*
G37*
D11*
X120500000Y-56000000D03*
D10*
G36*
X112012004Y-55126204D02*
G01*
X112036273Y-55129804D01*
X112060071Y-55135765D01*
X112083171Y-55144030D01*
X112105349Y-55154520D01*
X112126393Y-55167133D01*
X112146098Y-55181747D01*
X112164277Y-55198223D01*
X112180753Y-55216402D01*
X112195367Y-55236107D01*
X112207980Y-55257151D01*
X112218470Y-55279329D01*
X112226735Y-55302429D01*
X112232696Y-55326227D01*
X112236296Y-55350496D01*
X112237500Y-55375000D01*
X112237500Y-56625000D01*
X112236296Y-56649504D01*
X112232696Y-56673773D01*
X112226735Y-56697571D01*
X112218470Y-56720671D01*
X112207980Y-56742849D01*
X112195367Y-56763893D01*
X112180753Y-56783598D01*
X112164277Y-56801777D01*
X112146098Y-56818253D01*
X112126393Y-56832867D01*
X112105349Y-56845480D01*
X112083171Y-56855970D01*
X112060071Y-56864235D01*
X112036273Y-56870196D01*
X112012004Y-56873796D01*
X111987500Y-56875000D01*
X111062500Y-56875000D01*
X111037996Y-56873796D01*
X111013727Y-56870196D01*
X110989929Y-56864235D01*
X110966829Y-56855970D01*
X110944651Y-56845480D01*
X110923607Y-56832867D01*
X110903902Y-56818253D01*
X110885723Y-56801777D01*
X110869247Y-56783598D01*
X110854633Y-56763893D01*
X110842020Y-56742849D01*
X110831530Y-56720671D01*
X110823265Y-56697571D01*
X110817304Y-56673773D01*
X110813704Y-56649504D01*
X110812500Y-56625000D01*
X110812500Y-55375000D01*
X110813704Y-55350496D01*
X110817304Y-55326227D01*
X110823265Y-55302429D01*
X110831530Y-55279329D01*
X110842020Y-55257151D01*
X110854633Y-55236107D01*
X110869247Y-55216402D01*
X110885723Y-55198223D01*
X110903902Y-55181747D01*
X110923607Y-55167133D01*
X110944651Y-55154520D01*
X110966829Y-55144030D01*
X110989929Y-55135765D01*
X111013727Y-55129804D01*
X111037996Y-55126204D01*
X111062500Y-55125000D01*
X111987500Y-55125000D01*
X112012004Y-55126204D01*
X112012004Y-55126204D01*
G37*
D11*
X111525000Y-56000000D03*
D10*
G36*
X114987004Y-55126204D02*
G01*
X115011273Y-55129804D01*
X115035071Y-55135765D01*
X115058171Y-55144030D01*
X115080349Y-55154520D01*
X115101393Y-55167133D01*
X115121098Y-55181747D01*
X115139277Y-55198223D01*
X115155753Y-55216402D01*
X115170367Y-55236107D01*
X115182980Y-55257151D01*
X115193470Y-55279329D01*
X115201735Y-55302429D01*
X115207696Y-55326227D01*
X115211296Y-55350496D01*
X115212500Y-55375000D01*
X115212500Y-56625000D01*
X115211296Y-56649504D01*
X115207696Y-56673773D01*
X115201735Y-56697571D01*
X115193470Y-56720671D01*
X115182980Y-56742849D01*
X115170367Y-56763893D01*
X115155753Y-56783598D01*
X115139277Y-56801777D01*
X115121098Y-56818253D01*
X115101393Y-56832867D01*
X115080349Y-56845480D01*
X115058171Y-56855970D01*
X115035071Y-56864235D01*
X115011273Y-56870196D01*
X114987004Y-56873796D01*
X114962500Y-56875000D01*
X114037500Y-56875000D01*
X114012996Y-56873796D01*
X113988727Y-56870196D01*
X113964929Y-56864235D01*
X113941829Y-56855970D01*
X113919651Y-56845480D01*
X113898607Y-56832867D01*
X113878902Y-56818253D01*
X113860723Y-56801777D01*
X113844247Y-56783598D01*
X113829633Y-56763893D01*
X113817020Y-56742849D01*
X113806530Y-56720671D01*
X113798265Y-56697571D01*
X113792304Y-56673773D01*
X113788704Y-56649504D01*
X113787500Y-56625000D01*
X113787500Y-55375000D01*
X113788704Y-55350496D01*
X113792304Y-55326227D01*
X113798265Y-55302429D01*
X113806530Y-55279329D01*
X113817020Y-55257151D01*
X113829633Y-55236107D01*
X113844247Y-55216402D01*
X113860723Y-55198223D01*
X113878902Y-55181747D01*
X113898607Y-55167133D01*
X113919651Y-55154520D01*
X113941829Y-55144030D01*
X113964929Y-55135765D01*
X113988727Y-55129804D01*
X114012996Y-55126204D01*
X114037500Y-55125000D01*
X114962500Y-55125000D01*
X114987004Y-55126204D01*
X114987004Y-55126204D01*
G37*
D11*
X114500000Y-56000000D03*
D12*
X114090000Y-61310000D03*
X114090000Y-63850000D03*
X111550000Y-61310000D03*
X111550000Y-63850000D03*
X109010000Y-61310000D03*
X109010000Y-63850000D03*
X106470000Y-61310000D03*
X106470000Y-63850000D03*
X103930000Y-61310000D03*
X103930000Y-63850000D03*
X101390000Y-61310000D03*
X101390000Y-63850000D03*
X98850000Y-61310000D03*
X98850000Y-63850000D03*
D13*
X92650000Y-52000000D03*
X95420000Y-52000000D03*
X98190000Y-52000000D03*
X100960000Y-52000000D03*
X103730000Y-52000000D03*
X106500000Y-52000000D03*
X109270000Y-52000000D03*
X112040000Y-52000000D03*
X114810000Y-52000000D03*
X117580000Y-52000000D03*
X120350000Y-52000000D03*
D14*
X111525000Y-61385000D02*
X111600000Y-61460000D01*
X111525000Y-61285000D02*
X111550000Y-61310000D01*
X111525000Y-56000000D02*
X111525000Y-61285000D01*
X114090000Y-60010000D02*
X114090000Y-61310000D01*
X117525000Y-56575000D02*
X114090000Y-60010000D01*
X117525000Y-56000000D02*
X117525000Y-56575000D01*
X115271347Y-55228653D02*
X114500000Y-56000000D01*
X117580000Y-52920000D02*
X115271347Y-55228653D01*
X117580000Y-52000000D02*
X117580000Y-52920000D01*
X120350000Y-55637500D02*
X119987500Y-56000000D01*
X120500000Y-52150000D02*
X120350000Y-52000000D01*
X120500000Y-56000000D02*
X120500000Y-52150000D01*
D15*
G36*
X91446117Y-53740000D02*
G01*
X91451508Y-53794733D01*
X91467473Y-53847362D01*
X91493398Y-53895865D01*
X91528288Y-53938379D01*
X91570802Y-53973269D01*
X91619305Y-53999194D01*
X91671934Y-54015159D01*
X91726667Y-54020550D01*
X93573333Y-54020550D01*
X93628066Y-54015159D01*
X93680695Y-53999194D01*
X93729198Y-53973269D01*
X93771712Y-53938379D01*
X93806602Y-53895865D01*
X93832527Y-53847362D01*
X93848492Y-53794733D01*
X93853883Y-53740000D01*
X93853883Y-50304200D01*
X94216117Y-50304200D01*
X94216117Y-53740000D01*
X94221508Y-53794733D01*
X94237473Y-53847362D01*
X94263398Y-53895865D01*
X94298288Y-53938379D01*
X94340802Y-53973269D01*
X94389305Y-53999194D01*
X94441934Y-54015159D01*
X94496667Y-54020550D01*
X96343333Y-54020550D01*
X96398066Y-54015159D01*
X96450695Y-53999194D01*
X96499198Y-53973269D01*
X96541712Y-53938379D01*
X96576602Y-53895865D01*
X96602527Y-53847362D01*
X96618492Y-53794733D01*
X96623883Y-53740000D01*
X96623883Y-50304200D01*
X96986117Y-50304200D01*
X96986117Y-53740000D01*
X96991508Y-53794733D01*
X97007473Y-53847362D01*
X97033398Y-53895865D01*
X97068288Y-53938379D01*
X97110802Y-53973269D01*
X97159305Y-53999194D01*
X97211934Y-54015159D01*
X97266667Y-54020550D01*
X99113333Y-54020550D01*
X99168066Y-54015159D01*
X99220695Y-53999194D01*
X99269198Y-53973269D01*
X99311712Y-53938379D01*
X99346602Y-53895865D01*
X99372527Y-53847362D01*
X99388492Y-53794733D01*
X99393883Y-53740000D01*
X99756116Y-53740000D01*
X99761507Y-53794733D01*
X99777472Y-53847362D01*
X99803397Y-53895866D01*
X99838287Y-53938380D01*
X99880801Y-53973270D01*
X99929305Y-53999195D01*
X99981934Y-54015160D01*
X100036667Y-54020551D01*
X100712400Y-54019200D01*
X100782200Y-53949400D01*
X100782200Y-52177800D01*
X101137800Y-52177800D01*
X101137800Y-53949400D01*
X101207600Y-54019200D01*
X101883333Y-54020551D01*
X101938066Y-54015160D01*
X101990695Y-53999195D01*
X102039199Y-53973270D01*
X102081713Y-53938380D01*
X102116603Y-53895866D01*
X102142528Y-53847362D01*
X102158493Y-53794733D01*
X102163884Y-53740000D01*
X102526116Y-53740000D01*
X102531507Y-53794733D01*
X102547472Y-53847362D01*
X102573397Y-53895866D01*
X102608287Y-53938380D01*
X102650801Y-53973270D01*
X102699305Y-53999195D01*
X102751934Y-54015160D01*
X102806667Y-54020551D01*
X103482400Y-54019200D01*
X103552200Y-53949400D01*
X103552200Y-52177800D01*
X103907800Y-52177800D01*
X103907800Y-53949400D01*
X103977600Y-54019200D01*
X104653333Y-54020551D01*
X104708066Y-54015160D01*
X104760695Y-53999195D01*
X104809199Y-53973270D01*
X104851713Y-53938380D01*
X104886603Y-53895866D01*
X104912528Y-53847362D01*
X104928493Y-53794733D01*
X104933884Y-53740000D01*
X105296116Y-53740000D01*
X105301507Y-53794733D01*
X105317472Y-53847362D01*
X105343397Y-53895866D01*
X105378287Y-53938380D01*
X105420801Y-53973270D01*
X105469305Y-53999195D01*
X105521934Y-54015160D01*
X105576667Y-54020551D01*
X106252400Y-54019200D01*
X106322200Y-53949400D01*
X106322200Y-52177800D01*
X106677800Y-52177800D01*
X106677800Y-53949400D01*
X106747600Y-54019200D01*
X107423333Y-54020551D01*
X107478066Y-54015160D01*
X107530695Y-53999195D01*
X107579199Y-53973270D01*
X107621713Y-53938380D01*
X107656603Y-53895866D01*
X107682528Y-53847362D01*
X107698493Y-53794733D01*
X107703884Y-53740000D01*
X108066116Y-53740000D01*
X108071507Y-53794733D01*
X108087472Y-53847362D01*
X108113397Y-53895866D01*
X108148287Y-53938380D01*
X108190801Y-53973270D01*
X108239305Y-53999195D01*
X108291934Y-54015160D01*
X108346667Y-54020551D01*
X109022400Y-54019200D01*
X109092200Y-53949400D01*
X109092200Y-52177800D01*
X109447800Y-52177800D01*
X109447800Y-53949400D01*
X109517600Y-54019200D01*
X110193333Y-54020551D01*
X110248066Y-54015160D01*
X110300695Y-53999195D01*
X110349199Y-53973270D01*
X110391713Y-53938380D01*
X110426603Y-53895866D01*
X110452528Y-53847362D01*
X110468493Y-53794733D01*
X110473884Y-53740000D01*
X110836116Y-53740000D01*
X110841507Y-53794733D01*
X110857472Y-53847362D01*
X110883397Y-53895866D01*
X110918287Y-53938380D01*
X110960801Y-53973270D01*
X111009305Y-53999195D01*
X111061934Y-54015160D01*
X111116667Y-54020551D01*
X111792400Y-54019200D01*
X111862200Y-53949400D01*
X111862200Y-52177800D01*
X112217800Y-52177800D01*
X112217800Y-53949400D01*
X112287600Y-54019200D01*
X112963333Y-54020551D01*
X113018066Y-54015160D01*
X113070695Y-53999195D01*
X113119199Y-53973270D01*
X113161713Y-53938380D01*
X113196603Y-53895866D01*
X113222528Y-53847362D01*
X113238493Y-53794733D01*
X113243884Y-53740000D01*
X113242533Y-52247600D01*
X113172733Y-52177800D01*
X112217800Y-52177800D01*
X111862200Y-52177800D01*
X110907267Y-52177800D01*
X110837467Y-52247600D01*
X110836116Y-53740000D01*
X110473884Y-53740000D01*
X110472533Y-52247600D01*
X110402733Y-52177800D01*
X109447800Y-52177800D01*
X109092200Y-52177800D01*
X108137267Y-52177800D01*
X108067467Y-52247600D01*
X108066116Y-53740000D01*
X107703884Y-53740000D01*
X107702533Y-52247600D01*
X107632733Y-52177800D01*
X106677800Y-52177800D01*
X106322200Y-52177800D01*
X105367267Y-52177800D01*
X105297467Y-52247600D01*
X105296116Y-53740000D01*
X104933884Y-53740000D01*
X104932533Y-52247600D01*
X104862733Y-52177800D01*
X103907800Y-52177800D01*
X103552200Y-52177800D01*
X102597267Y-52177800D01*
X102527467Y-52247600D01*
X102526116Y-53740000D01*
X102163884Y-53740000D01*
X102162533Y-52247600D01*
X102092733Y-52177800D01*
X101137800Y-52177800D01*
X100782200Y-52177800D01*
X99827267Y-52177800D01*
X99757467Y-52247600D01*
X99756116Y-53740000D01*
X99393883Y-53740000D01*
X99393883Y-50304200D01*
X99756156Y-50304200D01*
X99757467Y-51752400D01*
X99827267Y-51822200D01*
X100782200Y-51822200D01*
X100782200Y-51802200D01*
X101137800Y-51802200D01*
X101137800Y-51822200D01*
X102092733Y-51822200D01*
X102162533Y-51752400D01*
X102163844Y-50304200D01*
X102526156Y-50304200D01*
X102527467Y-51752400D01*
X102597267Y-51822200D01*
X103552200Y-51822200D01*
X103552200Y-51802200D01*
X103907800Y-51802200D01*
X103907800Y-51822200D01*
X104862733Y-51822200D01*
X104932533Y-51752400D01*
X104933844Y-50304200D01*
X105296156Y-50304200D01*
X105297467Y-51752400D01*
X105367267Y-51822200D01*
X106322200Y-51822200D01*
X106322200Y-51802200D01*
X106677800Y-51802200D01*
X106677800Y-51822200D01*
X107632733Y-51822200D01*
X107702533Y-51752400D01*
X107703844Y-50304200D01*
X108066156Y-50304200D01*
X108067467Y-51752400D01*
X108137267Y-51822200D01*
X109092200Y-51822200D01*
X109092200Y-51802200D01*
X109447800Y-51802200D01*
X109447800Y-51822200D01*
X110402733Y-51822200D01*
X110472533Y-51752400D01*
X110473844Y-50304200D01*
X110836156Y-50304200D01*
X110837467Y-51752400D01*
X110907267Y-51822200D01*
X111862200Y-51822200D01*
X111862200Y-51802200D01*
X112217800Y-51802200D01*
X112217800Y-51822200D01*
X113172733Y-51822200D01*
X113242533Y-51752400D01*
X113243844Y-50304200D01*
X113606117Y-50304200D01*
X113606117Y-53740000D01*
X113611508Y-53794733D01*
X113627473Y-53847362D01*
X113653398Y-53895865D01*
X113688288Y-53938379D01*
X113730802Y-53973269D01*
X113779305Y-53999194D01*
X113831934Y-54015159D01*
X113886667Y-54020550D01*
X115725392Y-54020550D01*
X114912843Y-54833100D01*
X114912832Y-54833109D01*
X114901491Y-54844450D01*
X114037500Y-54844450D01*
X113933995Y-54854644D01*
X113834467Y-54884836D01*
X113742742Y-54933864D01*
X113662344Y-54999844D01*
X113596364Y-55080242D01*
X113547336Y-55171967D01*
X113517144Y-55271495D01*
X113506950Y-55375000D01*
X113506950Y-56625000D01*
X113517144Y-56728505D01*
X113547336Y-56828033D01*
X113596364Y-56919758D01*
X113662344Y-57000156D01*
X113742742Y-57066136D01*
X113834467Y-57115164D01*
X113933995Y-57145356D01*
X114037500Y-57155550D01*
X114962500Y-57155550D01*
X115066005Y-57145356D01*
X115165533Y-57115164D01*
X115257258Y-57066136D01*
X115337656Y-57000156D01*
X115403636Y-56919758D01*
X115452664Y-56828033D01*
X115482856Y-56728505D01*
X115493050Y-56625000D01*
X115493050Y-55761009D01*
X115666891Y-55587168D01*
X115666900Y-55587157D01*
X117233508Y-54020550D01*
X118503333Y-54020550D01*
X118558066Y-54015159D01*
X118610695Y-53999194D01*
X118659198Y-53973269D01*
X118701712Y-53938379D01*
X118736602Y-53895865D01*
X118762527Y-53847362D01*
X118778492Y-53794733D01*
X118783883Y-53740000D01*
X118783883Y-50304200D01*
X119146117Y-50304200D01*
X119146117Y-53740000D01*
X119151508Y-53794733D01*
X119167473Y-53847362D01*
X119193398Y-53895865D01*
X119228288Y-53938379D01*
X119270802Y-53973269D01*
X119319305Y-53999194D01*
X119371934Y-54015159D01*
X119426667Y-54020550D01*
X119966801Y-54020550D01*
X119966800Y-54851413D01*
X119933995Y-54854644D01*
X119834467Y-54884836D01*
X119742742Y-54933864D01*
X119662344Y-54999844D01*
X119596364Y-55080242D01*
X119547336Y-55171967D01*
X119517144Y-55271495D01*
X119506950Y-55375000D01*
X119506950Y-55767943D01*
X119492505Y-55794967D01*
X119462016Y-55895475D01*
X119451721Y-56000000D01*
X119462016Y-56104525D01*
X119492505Y-56205033D01*
X119506950Y-56232057D01*
X119506950Y-56625000D01*
X119517144Y-56728505D01*
X119547336Y-56828033D01*
X119596364Y-56919758D01*
X119662344Y-57000156D01*
X119742742Y-57066136D01*
X119834467Y-57115164D01*
X119933995Y-57145356D01*
X120037500Y-57155550D01*
X120962500Y-57155550D01*
X121066005Y-57145356D01*
X121165533Y-57115164D01*
X121257258Y-57066136D01*
X121337656Y-57000156D01*
X121403636Y-56919758D01*
X121452664Y-56828033D01*
X121482856Y-56728505D01*
X121493050Y-56625000D01*
X121493050Y-55375000D01*
X121482856Y-55271495D01*
X121452664Y-55171967D01*
X121403636Y-55080242D01*
X121337656Y-54999844D01*
X121257258Y-54933864D01*
X121165533Y-54884836D01*
X121066005Y-54854644D01*
X121033200Y-54851413D01*
X121033200Y-54020550D01*
X121273333Y-54020550D01*
X121328066Y-54015159D01*
X121380695Y-53999194D01*
X121429198Y-53973269D01*
X121471712Y-53938379D01*
X121506602Y-53895865D01*
X121532527Y-53847362D01*
X121548492Y-53794733D01*
X121553883Y-53740000D01*
X121553883Y-50304200D01*
X122695800Y-50304200D01*
X122695801Y-57695800D01*
X118014925Y-57695800D01*
X117999999Y-57694330D01*
X117985073Y-57695800D01*
X117985064Y-57695800D01*
X117940367Y-57700202D01*
X117883025Y-57717597D01*
X117858424Y-57730746D01*
X117830177Y-57745844D01*
X117795459Y-57774337D01*
X117783858Y-57783858D01*
X117774338Y-57795458D01*
X115795463Y-59774334D01*
X115783858Y-59783858D01*
X115774337Y-59795460D01*
X115745844Y-59830178D01*
X115730746Y-59858425D01*
X115717597Y-59883026D01*
X115700202Y-59940368D01*
X115695800Y-59985065D01*
X115695800Y-59985074D01*
X115694330Y-60000000D01*
X115695800Y-60014926D01*
X115695801Y-65695800D01*
X97304200Y-65695800D01*
X97304200Y-63850000D01*
X97715337Y-63850000D01*
X97737139Y-64071362D01*
X97801708Y-64284217D01*
X97906562Y-64480385D01*
X98047672Y-64652328D01*
X98219615Y-64793438D01*
X98415783Y-64898292D01*
X98628638Y-64962861D01*
X98794533Y-64979200D01*
X98905467Y-64979200D01*
X99071362Y-64962861D01*
X99284217Y-64898292D01*
X99480385Y-64793438D01*
X99652328Y-64652328D01*
X99793438Y-64480385D01*
X99898292Y-64284217D01*
X99962861Y-64071362D01*
X99984663Y-63850000D01*
X100255337Y-63850000D01*
X100277139Y-64071362D01*
X100341708Y-64284217D01*
X100446562Y-64480385D01*
X100587672Y-64652328D01*
X100759615Y-64793438D01*
X100955783Y-64898292D01*
X101168638Y-64962861D01*
X101334533Y-64979200D01*
X101445467Y-64979200D01*
X101611362Y-64962861D01*
X101824217Y-64898292D01*
X102020385Y-64793438D01*
X102192328Y-64652328D01*
X102333438Y-64480385D01*
X102438292Y-64284217D01*
X102463822Y-64200055D01*
X102856420Y-64200055D01*
X102945341Y-64402774D01*
X103072102Y-64584250D01*
X103231831Y-64737509D01*
X103418391Y-64856662D01*
X103579947Y-64923571D01*
X103752200Y-64894373D01*
X103752200Y-64027800D01*
X104107800Y-64027800D01*
X104107800Y-64894373D01*
X104280053Y-64923571D01*
X104441609Y-64856662D01*
X104628169Y-64737509D01*
X104787898Y-64584250D01*
X104914659Y-64402774D01*
X105003580Y-64200055D01*
X105396420Y-64200055D01*
X105485341Y-64402774D01*
X105612102Y-64584250D01*
X105771831Y-64737509D01*
X105958391Y-64856662D01*
X106119947Y-64923571D01*
X106292200Y-64894373D01*
X106292200Y-64027800D01*
X106647800Y-64027800D01*
X106647800Y-64894373D01*
X106820053Y-64923571D01*
X106981609Y-64856662D01*
X107168169Y-64737509D01*
X107327898Y-64584250D01*
X107454659Y-64402774D01*
X107543580Y-64200055D01*
X107936420Y-64200055D01*
X108025341Y-64402774D01*
X108152102Y-64584250D01*
X108311831Y-64737509D01*
X108498391Y-64856662D01*
X108659947Y-64923571D01*
X108832200Y-64894373D01*
X108832200Y-64027800D01*
X109187800Y-64027800D01*
X109187800Y-64894373D01*
X109360053Y-64923571D01*
X109521609Y-64856662D01*
X109708169Y-64737509D01*
X109867898Y-64584250D01*
X109994659Y-64402774D01*
X110083580Y-64200055D01*
X110055323Y-64027800D01*
X109187800Y-64027800D01*
X108832200Y-64027800D01*
X107964677Y-64027800D01*
X107936420Y-64200055D01*
X107543580Y-64200055D01*
X107515323Y-64027800D01*
X106647800Y-64027800D01*
X106292200Y-64027800D01*
X105424677Y-64027800D01*
X105396420Y-64200055D01*
X105003580Y-64200055D01*
X104975323Y-64027800D01*
X104107800Y-64027800D01*
X103752200Y-64027800D01*
X102884677Y-64027800D01*
X102856420Y-64200055D01*
X102463822Y-64200055D01*
X102502861Y-64071362D01*
X102524663Y-63850000D01*
X110415337Y-63850000D01*
X110437139Y-64071362D01*
X110501708Y-64284217D01*
X110606562Y-64480385D01*
X110747672Y-64652328D01*
X110919615Y-64793438D01*
X111115783Y-64898292D01*
X111328638Y-64962861D01*
X111494533Y-64979200D01*
X111605467Y-64979200D01*
X111771362Y-64962861D01*
X111984217Y-64898292D01*
X112180385Y-64793438D01*
X112352328Y-64652328D01*
X112493438Y-64480385D01*
X112598292Y-64284217D01*
X112662861Y-64071362D01*
X112684663Y-63850000D01*
X112955337Y-63850000D01*
X112977139Y-64071362D01*
X113041708Y-64284217D01*
X113146562Y-64480385D01*
X113287672Y-64652328D01*
X113459615Y-64793438D01*
X113655783Y-64898292D01*
X113868638Y-64962861D01*
X114034533Y-64979200D01*
X114145467Y-64979200D01*
X114311362Y-64962861D01*
X114524217Y-64898292D01*
X114720385Y-64793438D01*
X114892328Y-64652328D01*
X115033438Y-64480385D01*
X115138292Y-64284217D01*
X115202861Y-64071362D01*
X115224663Y-63850000D01*
X115202861Y-63628638D01*
X115138292Y-63415783D01*
X115033438Y-63219615D01*
X114892328Y-63047672D01*
X114720385Y-62906562D01*
X114524217Y-62801708D01*
X114311362Y-62737139D01*
X114145467Y-62720800D01*
X114034533Y-62720800D01*
X113868638Y-62737139D01*
X113655783Y-62801708D01*
X113459615Y-62906562D01*
X113287672Y-63047672D01*
X113146562Y-63219615D01*
X113041708Y-63415783D01*
X112977139Y-63628638D01*
X112955337Y-63850000D01*
X112684663Y-63850000D01*
X112662861Y-63628638D01*
X112598292Y-63415783D01*
X112493438Y-63219615D01*
X112352328Y-63047672D01*
X112180385Y-62906562D01*
X111984217Y-62801708D01*
X111771362Y-62737139D01*
X111605467Y-62720800D01*
X111494533Y-62720800D01*
X111328638Y-62737139D01*
X111115783Y-62801708D01*
X110919615Y-62906562D01*
X110747672Y-63047672D01*
X110606562Y-63219615D01*
X110501708Y-63415783D01*
X110437139Y-63628638D01*
X110415337Y-63850000D01*
X102524663Y-63850000D01*
X102502861Y-63628638D01*
X102463823Y-63499945D01*
X102856420Y-63499945D01*
X102884677Y-63672200D01*
X103752200Y-63672200D01*
X103752200Y-62805627D01*
X104107800Y-62805627D01*
X104107800Y-63672200D01*
X104975323Y-63672200D01*
X105003580Y-63499945D01*
X105396420Y-63499945D01*
X105424677Y-63672200D01*
X106292200Y-63672200D01*
X106292200Y-62805627D01*
X106647800Y-62805627D01*
X106647800Y-63672200D01*
X107515323Y-63672200D01*
X107543580Y-63499945D01*
X107936420Y-63499945D01*
X107964677Y-63672200D01*
X108832200Y-63672200D01*
X108832200Y-62805627D01*
X109187800Y-62805627D01*
X109187800Y-63672200D01*
X110055323Y-63672200D01*
X110083580Y-63499945D01*
X109994659Y-63297226D01*
X109867898Y-63115750D01*
X109708169Y-62962491D01*
X109521609Y-62843338D01*
X109360053Y-62776429D01*
X109187800Y-62805627D01*
X108832200Y-62805627D01*
X108659947Y-62776429D01*
X108498391Y-62843338D01*
X108311831Y-62962491D01*
X108152102Y-63115750D01*
X108025341Y-63297226D01*
X107936420Y-63499945D01*
X107543580Y-63499945D01*
X107454659Y-63297226D01*
X107327898Y-63115750D01*
X107168169Y-62962491D01*
X106981609Y-62843338D01*
X106820053Y-62776429D01*
X106647800Y-62805627D01*
X106292200Y-62805627D01*
X106119947Y-62776429D01*
X105958391Y-62843338D01*
X105771831Y-62962491D01*
X105612102Y-63115750D01*
X105485341Y-63297226D01*
X105396420Y-63499945D01*
X105003580Y-63499945D01*
X104914659Y-63297226D01*
X104787898Y-63115750D01*
X104628169Y-62962491D01*
X104441609Y-62843338D01*
X104280053Y-62776429D01*
X104107800Y-62805627D01*
X103752200Y-62805627D01*
X103579947Y-62776429D01*
X103418391Y-62843338D01*
X103231831Y-62962491D01*
X103072102Y-63115750D01*
X102945341Y-63297226D01*
X102856420Y-63499945D01*
X102463823Y-63499945D01*
X102438292Y-63415783D01*
X102333438Y-63219615D01*
X102192328Y-63047672D01*
X102020385Y-62906562D01*
X101824217Y-62801708D01*
X101611362Y-62737139D01*
X101445467Y-62720800D01*
X101334533Y-62720800D01*
X101168638Y-62737139D01*
X100955783Y-62801708D01*
X100759615Y-62906562D01*
X100587672Y-63047672D01*
X100446562Y-63219615D01*
X100341708Y-63415783D01*
X100277139Y-63628638D01*
X100255337Y-63850000D01*
X99984663Y-63850000D01*
X99962861Y-63628638D01*
X99898292Y-63415783D01*
X99793438Y-63219615D01*
X99652328Y-63047672D01*
X99480385Y-62906562D01*
X99284217Y-62801708D01*
X99071362Y-62737139D01*
X98905467Y-62720800D01*
X98794533Y-62720800D01*
X98628638Y-62737139D01*
X98415783Y-62801708D01*
X98219615Y-62906562D01*
X98047672Y-63047672D01*
X97906562Y-63219615D01*
X97801708Y-63415783D01*
X97737139Y-63628638D01*
X97715337Y-63850000D01*
X97304200Y-63850000D01*
X97304200Y-61310000D01*
X97715337Y-61310000D01*
X97737139Y-61531362D01*
X97801708Y-61744217D01*
X97906562Y-61940385D01*
X98047672Y-62112328D01*
X98219615Y-62253438D01*
X98415783Y-62358292D01*
X98628638Y-62422861D01*
X98794533Y-62439200D01*
X98905467Y-62439200D01*
X99071362Y-62422861D01*
X99284217Y-62358292D01*
X99480385Y-62253438D01*
X99652328Y-62112328D01*
X99793438Y-61940385D01*
X99898292Y-61744217D01*
X99962861Y-61531362D01*
X99984663Y-61310000D01*
X100255337Y-61310000D01*
X100277139Y-61531362D01*
X100341708Y-61744217D01*
X100446562Y-61940385D01*
X100587672Y-62112328D01*
X100759615Y-62253438D01*
X100955783Y-62358292D01*
X101168638Y-62422861D01*
X101334533Y-62439200D01*
X101445467Y-62439200D01*
X101611362Y-62422861D01*
X101824217Y-62358292D01*
X102020385Y-62253438D01*
X102192328Y-62112328D01*
X102333438Y-61940385D01*
X102438292Y-61744217D01*
X102502861Y-61531362D01*
X102524663Y-61310000D01*
X102795337Y-61310000D01*
X102817139Y-61531362D01*
X102881708Y-61744217D01*
X102986562Y-61940385D01*
X103127672Y-62112328D01*
X103299615Y-62253438D01*
X103495783Y-62358292D01*
X103708638Y-62422861D01*
X103874533Y-62439200D01*
X103985467Y-62439200D01*
X104151362Y-62422861D01*
X104364217Y-62358292D01*
X104560385Y-62253438D01*
X104732328Y-62112328D01*
X104873438Y-61940385D01*
X104978292Y-61744217D01*
X105003822Y-61660055D01*
X105396420Y-61660055D01*
X105485341Y-61862774D01*
X105612102Y-62044250D01*
X105771831Y-62197509D01*
X105958391Y-62316662D01*
X106119947Y-62383571D01*
X106292200Y-62354373D01*
X106292200Y-61487800D01*
X106647800Y-61487800D01*
X106647800Y-62354373D01*
X106820053Y-62383571D01*
X106981609Y-62316662D01*
X107168169Y-62197509D01*
X107327898Y-62044250D01*
X107454659Y-61862774D01*
X107543580Y-61660055D01*
X107515323Y-61487800D01*
X106647800Y-61487800D01*
X106292200Y-61487800D01*
X105424677Y-61487800D01*
X105396420Y-61660055D01*
X105003822Y-61660055D01*
X105042861Y-61531362D01*
X105064663Y-61310000D01*
X107875337Y-61310000D01*
X107897139Y-61531362D01*
X107961708Y-61744217D01*
X108066562Y-61940385D01*
X108207672Y-62112328D01*
X108379615Y-62253438D01*
X108575783Y-62358292D01*
X108788638Y-62422861D01*
X108954533Y-62439200D01*
X109065467Y-62439200D01*
X109231362Y-62422861D01*
X109444217Y-62358292D01*
X109640385Y-62253438D01*
X109812328Y-62112328D01*
X109953438Y-61940385D01*
X110058292Y-61744217D01*
X110122861Y-61531362D01*
X110144663Y-61310000D01*
X110415337Y-61310000D01*
X110437139Y-61531362D01*
X110501708Y-61744217D01*
X110606562Y-61940385D01*
X110747672Y-62112328D01*
X110919615Y-62253438D01*
X111115783Y-62358292D01*
X111328638Y-62422861D01*
X111494533Y-62439200D01*
X111605467Y-62439200D01*
X111771362Y-62422861D01*
X111984217Y-62358292D01*
X112180385Y-62253438D01*
X112352328Y-62112328D01*
X112493438Y-61940385D01*
X112598292Y-61744217D01*
X112662861Y-61531362D01*
X112684663Y-61310000D01*
X112955337Y-61310000D01*
X112977139Y-61531362D01*
X113041708Y-61744217D01*
X113146562Y-61940385D01*
X113287672Y-62112328D01*
X113459615Y-62253438D01*
X113655783Y-62358292D01*
X113868638Y-62422861D01*
X114034533Y-62439200D01*
X114145467Y-62439200D01*
X114311362Y-62422861D01*
X114524217Y-62358292D01*
X114720385Y-62253438D01*
X114892328Y-62112328D01*
X115033438Y-61940385D01*
X115138292Y-61744217D01*
X115202861Y-61531362D01*
X115224663Y-61310000D01*
X115202861Y-61088638D01*
X115138292Y-60875783D01*
X115033438Y-60679615D01*
X114892328Y-60507672D01*
X114720385Y-60366562D01*
X114623200Y-60314616D01*
X114623200Y-60230857D01*
X117698509Y-57155550D01*
X117987500Y-57155550D01*
X118091005Y-57145356D01*
X118190533Y-57115164D01*
X118282258Y-57066136D01*
X118362656Y-57000156D01*
X118428636Y-56919758D01*
X118477664Y-56828033D01*
X118507856Y-56728505D01*
X118518050Y-56625000D01*
X118518050Y-55375000D01*
X118507856Y-55271495D01*
X118477664Y-55171967D01*
X118428636Y-55080242D01*
X118362656Y-54999844D01*
X118282258Y-54933864D01*
X118190533Y-54884836D01*
X118091005Y-54854644D01*
X117987500Y-54844450D01*
X117062500Y-54844450D01*
X116958995Y-54854644D01*
X116859467Y-54884836D01*
X116767742Y-54933864D01*
X116687344Y-54999844D01*
X116621364Y-55080242D01*
X116572336Y-55171967D01*
X116542144Y-55271495D01*
X116531950Y-55375000D01*
X116531950Y-56625000D01*
X116542144Y-56728505D01*
X116559668Y-56786273D01*
X113731496Y-59614447D01*
X113711147Y-59631147D01*
X113644516Y-59712337D01*
X113606288Y-59783858D01*
X113595005Y-59804967D01*
X113564516Y-59905475D01*
X113554221Y-60010000D01*
X113556800Y-60036185D01*
X113556800Y-60314615D01*
X113459615Y-60366562D01*
X113287672Y-60507672D01*
X113146562Y-60679615D01*
X113041708Y-60875783D01*
X112977139Y-61088638D01*
X112955337Y-61310000D01*
X112684663Y-61310000D01*
X112662861Y-61088638D01*
X112598292Y-60875783D01*
X112493438Y-60679615D01*
X112352328Y-60507672D01*
X112180385Y-60366562D01*
X112058200Y-60301253D01*
X112058200Y-57148587D01*
X112091005Y-57145356D01*
X112190533Y-57115164D01*
X112282258Y-57066136D01*
X112362656Y-57000156D01*
X112428636Y-56919758D01*
X112477664Y-56828033D01*
X112507856Y-56728505D01*
X112518050Y-56625000D01*
X112518050Y-55375000D01*
X112507856Y-55271495D01*
X112477664Y-55171967D01*
X112428636Y-55080242D01*
X112362656Y-54999844D01*
X112282258Y-54933864D01*
X112190533Y-54884836D01*
X112091005Y-54854644D01*
X111987500Y-54844450D01*
X111062500Y-54844450D01*
X110958995Y-54854644D01*
X110859467Y-54884836D01*
X110767742Y-54933864D01*
X110687344Y-54999844D01*
X110621364Y-55080242D01*
X110572336Y-55171967D01*
X110542144Y-55271495D01*
X110531950Y-55375000D01*
X110531950Y-56625000D01*
X110542144Y-56728505D01*
X110572336Y-56828033D01*
X110621364Y-56919758D01*
X110687344Y-57000156D01*
X110767742Y-57066136D01*
X110859467Y-57115164D01*
X110958995Y-57145356D01*
X110991800Y-57148587D01*
X110991801Y-60327978D01*
X110919615Y-60366562D01*
X110747672Y-60507672D01*
X110606562Y-60679615D01*
X110501708Y-60875783D01*
X110437139Y-61088638D01*
X110415337Y-61310000D01*
X110144663Y-61310000D01*
X110122861Y-61088638D01*
X110058292Y-60875783D01*
X109953438Y-60679615D01*
X109812328Y-60507672D01*
X109640385Y-60366562D01*
X109444217Y-60261708D01*
X109231362Y-60197139D01*
X109065467Y-60180800D01*
X108954533Y-60180800D01*
X108788638Y-60197139D01*
X108575783Y-60261708D01*
X108379615Y-60366562D01*
X108207672Y-60507672D01*
X108066562Y-60679615D01*
X107961708Y-60875783D01*
X107897139Y-61088638D01*
X107875337Y-61310000D01*
X105064663Y-61310000D01*
X105042861Y-61088638D01*
X105003823Y-60959945D01*
X105396420Y-60959945D01*
X105424677Y-61132200D01*
X106292200Y-61132200D01*
X106292200Y-60265627D01*
X106647800Y-60265627D01*
X106647800Y-61132200D01*
X107515323Y-61132200D01*
X107543580Y-60959945D01*
X107454659Y-60757226D01*
X107327898Y-60575750D01*
X107168169Y-60422491D01*
X106981609Y-60303338D01*
X106820053Y-60236429D01*
X106647800Y-60265627D01*
X106292200Y-60265627D01*
X106119947Y-60236429D01*
X105958391Y-60303338D01*
X105771831Y-60422491D01*
X105612102Y-60575750D01*
X105485341Y-60757226D01*
X105396420Y-60959945D01*
X105003823Y-60959945D01*
X104978292Y-60875783D01*
X104873438Y-60679615D01*
X104732328Y-60507672D01*
X104560385Y-60366562D01*
X104364217Y-60261708D01*
X104151362Y-60197139D01*
X103985467Y-60180800D01*
X103874533Y-60180800D01*
X103708638Y-60197139D01*
X103495783Y-60261708D01*
X103299615Y-60366562D01*
X103127672Y-60507672D01*
X102986562Y-60679615D01*
X102881708Y-60875783D01*
X102817139Y-61088638D01*
X102795337Y-61310000D01*
X102524663Y-61310000D01*
X102502861Y-61088638D01*
X102438292Y-60875783D01*
X102333438Y-60679615D01*
X102192328Y-60507672D01*
X102020385Y-60366562D01*
X101824217Y-60261708D01*
X101611362Y-60197139D01*
X101445467Y-60180800D01*
X101334533Y-60180800D01*
X101168638Y-60197139D01*
X100955783Y-60261708D01*
X100759615Y-60366562D01*
X100587672Y-60507672D01*
X100446562Y-60679615D01*
X100341708Y-60875783D01*
X100277139Y-61088638D01*
X100255337Y-61310000D01*
X99984663Y-61310000D01*
X99962861Y-61088638D01*
X99898292Y-60875783D01*
X99793438Y-60679615D01*
X99652328Y-60507672D01*
X99480385Y-60366562D01*
X99284217Y-60261708D01*
X99071362Y-60197139D01*
X98905467Y-60180800D01*
X98794533Y-60180800D01*
X98628638Y-60197139D01*
X98415783Y-60261708D01*
X98219615Y-60366562D01*
X98047672Y-60507672D01*
X97906562Y-60679615D01*
X97801708Y-60875783D01*
X97737139Y-61088638D01*
X97715337Y-61310000D01*
X97304200Y-61310000D01*
X97304200Y-60014925D01*
X97305670Y-59999999D01*
X97304200Y-59985073D01*
X97304200Y-59985064D01*
X97299798Y-59940367D01*
X97282403Y-59883025D01*
X97254157Y-59830179D01*
X97254156Y-59830177D01*
X97225663Y-59795459D01*
X97225662Y-59795458D01*
X97216142Y-59783858D01*
X97204544Y-59774340D01*
X95225666Y-57795463D01*
X95216142Y-57783858D01*
X95169822Y-57745844D01*
X95116975Y-57717597D01*
X95059633Y-57700202D01*
X95014936Y-57695800D01*
X95014926Y-57695800D01*
X95000000Y-57694330D01*
X94985074Y-57695800D01*
X90304200Y-57695800D01*
X90304200Y-50304200D01*
X91446117Y-50304200D01*
X91446117Y-53740000D01*
X91446117Y-53740000D01*
G37*
X91446117Y-53740000D02*
X91451508Y-53794733D01*
X91467473Y-53847362D01*
X91493398Y-53895865D01*
X91528288Y-53938379D01*
X91570802Y-53973269D01*
X91619305Y-53999194D01*
X91671934Y-54015159D01*
X91726667Y-54020550D01*
X93573333Y-54020550D01*
X93628066Y-54015159D01*
X93680695Y-53999194D01*
X93729198Y-53973269D01*
X93771712Y-53938379D01*
X93806602Y-53895865D01*
X93832527Y-53847362D01*
X93848492Y-53794733D01*
X93853883Y-53740000D01*
X93853883Y-50304200D01*
X94216117Y-50304200D01*
X94216117Y-53740000D01*
X94221508Y-53794733D01*
X94237473Y-53847362D01*
X94263398Y-53895865D01*
X94298288Y-53938379D01*
X94340802Y-53973269D01*
X94389305Y-53999194D01*
X94441934Y-54015159D01*
X94496667Y-54020550D01*
X96343333Y-54020550D01*
X96398066Y-54015159D01*
X96450695Y-53999194D01*
X96499198Y-53973269D01*
X96541712Y-53938379D01*
X96576602Y-53895865D01*
X96602527Y-53847362D01*
X96618492Y-53794733D01*
X96623883Y-53740000D01*
X96623883Y-50304200D01*
X96986117Y-50304200D01*
X96986117Y-53740000D01*
X96991508Y-53794733D01*
X97007473Y-53847362D01*
X97033398Y-53895865D01*
X97068288Y-53938379D01*
X97110802Y-53973269D01*
X97159305Y-53999194D01*
X97211934Y-54015159D01*
X97266667Y-54020550D01*
X99113333Y-54020550D01*
X99168066Y-54015159D01*
X99220695Y-53999194D01*
X99269198Y-53973269D01*
X99311712Y-53938379D01*
X99346602Y-53895865D01*
X99372527Y-53847362D01*
X99388492Y-53794733D01*
X99393883Y-53740000D01*
X99756116Y-53740000D01*
X99761507Y-53794733D01*
X99777472Y-53847362D01*
X99803397Y-53895866D01*
X99838287Y-53938380D01*
X99880801Y-53973270D01*
X99929305Y-53999195D01*
X99981934Y-54015160D01*
X100036667Y-54020551D01*
X100712400Y-54019200D01*
X100782200Y-53949400D01*
X100782200Y-52177800D01*
X101137800Y-52177800D01*
X101137800Y-53949400D01*
X101207600Y-54019200D01*
X101883333Y-54020551D01*
X101938066Y-54015160D01*
X101990695Y-53999195D01*
X102039199Y-53973270D01*
X102081713Y-53938380D01*
X102116603Y-53895866D01*
X102142528Y-53847362D01*
X102158493Y-53794733D01*
X102163884Y-53740000D01*
X102526116Y-53740000D01*
X102531507Y-53794733D01*
X102547472Y-53847362D01*
X102573397Y-53895866D01*
X102608287Y-53938380D01*
X102650801Y-53973270D01*
X102699305Y-53999195D01*
X102751934Y-54015160D01*
X102806667Y-54020551D01*
X103482400Y-54019200D01*
X103552200Y-53949400D01*
X103552200Y-52177800D01*
X103907800Y-52177800D01*
X103907800Y-53949400D01*
X103977600Y-54019200D01*
X104653333Y-54020551D01*
X104708066Y-54015160D01*
X104760695Y-53999195D01*
X104809199Y-53973270D01*
X104851713Y-53938380D01*
X104886603Y-53895866D01*
X104912528Y-53847362D01*
X104928493Y-53794733D01*
X104933884Y-53740000D01*
X105296116Y-53740000D01*
X105301507Y-53794733D01*
X105317472Y-53847362D01*
X105343397Y-53895866D01*
X105378287Y-53938380D01*
X105420801Y-53973270D01*
X105469305Y-53999195D01*
X105521934Y-54015160D01*
X105576667Y-54020551D01*
X106252400Y-54019200D01*
X106322200Y-53949400D01*
X106322200Y-52177800D01*
X106677800Y-52177800D01*
X106677800Y-53949400D01*
X106747600Y-54019200D01*
X107423333Y-54020551D01*
X107478066Y-54015160D01*
X107530695Y-53999195D01*
X107579199Y-53973270D01*
X107621713Y-53938380D01*
X107656603Y-53895866D01*
X107682528Y-53847362D01*
X107698493Y-53794733D01*
X107703884Y-53740000D01*
X108066116Y-53740000D01*
X108071507Y-53794733D01*
X108087472Y-53847362D01*
X108113397Y-53895866D01*
X108148287Y-53938380D01*
X108190801Y-53973270D01*
X108239305Y-53999195D01*
X108291934Y-54015160D01*
X108346667Y-54020551D01*
X109022400Y-54019200D01*
X109092200Y-53949400D01*
X109092200Y-52177800D01*
X109447800Y-52177800D01*
X109447800Y-53949400D01*
X109517600Y-54019200D01*
X110193333Y-54020551D01*
X110248066Y-54015160D01*
X110300695Y-53999195D01*
X110349199Y-53973270D01*
X110391713Y-53938380D01*
X110426603Y-53895866D01*
X110452528Y-53847362D01*
X110468493Y-53794733D01*
X110473884Y-53740000D01*
X110836116Y-53740000D01*
X110841507Y-53794733D01*
X110857472Y-53847362D01*
X110883397Y-53895866D01*
X110918287Y-53938380D01*
X110960801Y-53973270D01*
X111009305Y-53999195D01*
X111061934Y-54015160D01*
X111116667Y-54020551D01*
X111792400Y-54019200D01*
X111862200Y-53949400D01*
X111862200Y-52177800D01*
X112217800Y-52177800D01*
X112217800Y-53949400D01*
X112287600Y-54019200D01*
X112963333Y-54020551D01*
X113018066Y-54015160D01*
X113070695Y-53999195D01*
X113119199Y-53973270D01*
X113161713Y-53938380D01*
X113196603Y-53895866D01*
X113222528Y-53847362D01*
X113238493Y-53794733D01*
X113243884Y-53740000D01*
X113242533Y-52247600D01*
X113172733Y-52177800D01*
X112217800Y-52177800D01*
X111862200Y-52177800D01*
X110907267Y-52177800D01*
X110837467Y-52247600D01*
X110836116Y-53740000D01*
X110473884Y-53740000D01*
X110472533Y-52247600D01*
X110402733Y-52177800D01*
X109447800Y-52177800D01*
X109092200Y-52177800D01*
X108137267Y-52177800D01*
X108067467Y-52247600D01*
X108066116Y-53740000D01*
X107703884Y-53740000D01*
X107702533Y-52247600D01*
X107632733Y-52177800D01*
X106677800Y-52177800D01*
X106322200Y-52177800D01*
X105367267Y-52177800D01*
X105297467Y-52247600D01*
X105296116Y-53740000D01*
X104933884Y-53740000D01*
X104932533Y-52247600D01*
X104862733Y-52177800D01*
X103907800Y-52177800D01*
X103552200Y-52177800D01*
X102597267Y-52177800D01*
X102527467Y-52247600D01*
X102526116Y-53740000D01*
X102163884Y-53740000D01*
X102162533Y-52247600D01*
X102092733Y-52177800D01*
X101137800Y-52177800D01*
X100782200Y-52177800D01*
X99827267Y-52177800D01*
X99757467Y-52247600D01*
X99756116Y-53740000D01*
X99393883Y-53740000D01*
X99393883Y-50304200D01*
X99756156Y-50304200D01*
X99757467Y-51752400D01*
X99827267Y-51822200D01*
X100782200Y-51822200D01*
X100782200Y-51802200D01*
X101137800Y-51802200D01*
X101137800Y-51822200D01*
X102092733Y-51822200D01*
X102162533Y-51752400D01*
X102163844Y-50304200D01*
X102526156Y-50304200D01*
X102527467Y-51752400D01*
X102597267Y-51822200D01*
X103552200Y-51822200D01*
X103552200Y-51802200D01*
X103907800Y-51802200D01*
X103907800Y-51822200D01*
X104862733Y-51822200D01*
X104932533Y-51752400D01*
X104933844Y-50304200D01*
X105296156Y-50304200D01*
X105297467Y-51752400D01*
X105367267Y-51822200D01*
X106322200Y-51822200D01*
X106322200Y-51802200D01*
X106677800Y-51802200D01*
X106677800Y-51822200D01*
X107632733Y-51822200D01*
X107702533Y-51752400D01*
X107703844Y-50304200D01*
X108066156Y-50304200D01*
X108067467Y-51752400D01*
X108137267Y-51822200D01*
X109092200Y-51822200D01*
X109092200Y-51802200D01*
X109447800Y-51802200D01*
X109447800Y-51822200D01*
X110402733Y-51822200D01*
X110472533Y-51752400D01*
X110473844Y-50304200D01*
X110836156Y-50304200D01*
X110837467Y-51752400D01*
X110907267Y-51822200D01*
X111862200Y-51822200D01*
X111862200Y-51802200D01*
X112217800Y-51802200D01*
X112217800Y-51822200D01*
X113172733Y-51822200D01*
X113242533Y-51752400D01*
X113243844Y-50304200D01*
X113606117Y-50304200D01*
X113606117Y-53740000D01*
X113611508Y-53794733D01*
X113627473Y-53847362D01*
X113653398Y-53895865D01*
X113688288Y-53938379D01*
X113730802Y-53973269D01*
X113779305Y-53999194D01*
X113831934Y-54015159D01*
X113886667Y-54020550D01*
X115725392Y-54020550D01*
X114912843Y-54833100D01*
X114912832Y-54833109D01*
X114901491Y-54844450D01*
X114037500Y-54844450D01*
X113933995Y-54854644D01*
X113834467Y-54884836D01*
X113742742Y-54933864D01*
X113662344Y-54999844D01*
X113596364Y-55080242D01*
X113547336Y-55171967D01*
X113517144Y-55271495D01*
X113506950Y-55375000D01*
X113506950Y-56625000D01*
X113517144Y-56728505D01*
X113547336Y-56828033D01*
X113596364Y-56919758D01*
X113662344Y-57000156D01*
X113742742Y-57066136D01*
X113834467Y-57115164D01*
X113933995Y-57145356D01*
X114037500Y-57155550D01*
X114962500Y-57155550D01*
X115066005Y-57145356D01*
X115165533Y-57115164D01*
X115257258Y-57066136D01*
X115337656Y-57000156D01*
X115403636Y-56919758D01*
X115452664Y-56828033D01*
X115482856Y-56728505D01*
X115493050Y-56625000D01*
X115493050Y-55761009D01*
X115666891Y-55587168D01*
X115666900Y-55587157D01*
X117233508Y-54020550D01*
X118503333Y-54020550D01*
X118558066Y-54015159D01*
X118610695Y-53999194D01*
X118659198Y-53973269D01*
X118701712Y-53938379D01*
X118736602Y-53895865D01*
X118762527Y-53847362D01*
X118778492Y-53794733D01*
X118783883Y-53740000D01*
X118783883Y-50304200D01*
X119146117Y-50304200D01*
X119146117Y-53740000D01*
X119151508Y-53794733D01*
X119167473Y-53847362D01*
X119193398Y-53895865D01*
X119228288Y-53938379D01*
X119270802Y-53973269D01*
X119319305Y-53999194D01*
X119371934Y-54015159D01*
X119426667Y-54020550D01*
X119966801Y-54020550D01*
X119966800Y-54851413D01*
X119933995Y-54854644D01*
X119834467Y-54884836D01*
X119742742Y-54933864D01*
X119662344Y-54999844D01*
X119596364Y-55080242D01*
X119547336Y-55171967D01*
X119517144Y-55271495D01*
X119506950Y-55375000D01*
X119506950Y-55767943D01*
X119492505Y-55794967D01*
X119462016Y-55895475D01*
X119451721Y-56000000D01*
X119462016Y-56104525D01*
X119492505Y-56205033D01*
X119506950Y-56232057D01*
X119506950Y-56625000D01*
X119517144Y-56728505D01*
X119547336Y-56828033D01*
X119596364Y-56919758D01*
X119662344Y-57000156D01*
X119742742Y-57066136D01*
X119834467Y-57115164D01*
X119933995Y-57145356D01*
X120037500Y-57155550D01*
X120962500Y-57155550D01*
X121066005Y-57145356D01*
X121165533Y-57115164D01*
X121257258Y-57066136D01*
X121337656Y-57000156D01*
X121403636Y-56919758D01*
X121452664Y-56828033D01*
X121482856Y-56728505D01*
X121493050Y-56625000D01*
X121493050Y-55375000D01*
X121482856Y-55271495D01*
X121452664Y-55171967D01*
X121403636Y-55080242D01*
X121337656Y-54999844D01*
X121257258Y-54933864D01*
X121165533Y-54884836D01*
X121066005Y-54854644D01*
X121033200Y-54851413D01*
X121033200Y-54020550D01*
X121273333Y-54020550D01*
X121328066Y-54015159D01*
X121380695Y-53999194D01*
X121429198Y-53973269D01*
X121471712Y-53938379D01*
X121506602Y-53895865D01*
X121532527Y-53847362D01*
X121548492Y-53794733D01*
X121553883Y-53740000D01*
X121553883Y-50304200D01*
X122695800Y-50304200D01*
X122695801Y-57695800D01*
X118014925Y-57695800D01*
X117999999Y-57694330D01*
X117985073Y-57695800D01*
X117985064Y-57695800D01*
X117940367Y-57700202D01*
X117883025Y-57717597D01*
X117858424Y-57730746D01*
X117830177Y-57745844D01*
X117795459Y-57774337D01*
X117783858Y-57783858D01*
X117774338Y-57795458D01*
X115795463Y-59774334D01*
X115783858Y-59783858D01*
X115774337Y-59795460D01*
X115745844Y-59830178D01*
X115730746Y-59858425D01*
X115717597Y-59883026D01*
X115700202Y-59940368D01*
X115695800Y-59985065D01*
X115695800Y-59985074D01*
X115694330Y-60000000D01*
X115695800Y-60014926D01*
X115695801Y-65695800D01*
X97304200Y-65695800D01*
X97304200Y-63850000D01*
X97715337Y-63850000D01*
X97737139Y-64071362D01*
X97801708Y-64284217D01*
X97906562Y-64480385D01*
X98047672Y-64652328D01*
X98219615Y-64793438D01*
X98415783Y-64898292D01*
X98628638Y-64962861D01*
X98794533Y-64979200D01*
X98905467Y-64979200D01*
X99071362Y-64962861D01*
X99284217Y-64898292D01*
X99480385Y-64793438D01*
X99652328Y-64652328D01*
X99793438Y-64480385D01*
X99898292Y-64284217D01*
X99962861Y-64071362D01*
X99984663Y-63850000D01*
X100255337Y-63850000D01*
X100277139Y-64071362D01*
X100341708Y-64284217D01*
X100446562Y-64480385D01*
X100587672Y-64652328D01*
X100759615Y-64793438D01*
X100955783Y-64898292D01*
X101168638Y-64962861D01*
X101334533Y-64979200D01*
X101445467Y-64979200D01*
X101611362Y-64962861D01*
X101824217Y-64898292D01*
X102020385Y-64793438D01*
X102192328Y-64652328D01*
X102333438Y-64480385D01*
X102438292Y-64284217D01*
X102463822Y-64200055D01*
X102856420Y-64200055D01*
X102945341Y-64402774D01*
X103072102Y-64584250D01*
X103231831Y-64737509D01*
X103418391Y-64856662D01*
X103579947Y-64923571D01*
X103752200Y-64894373D01*
X103752200Y-64027800D01*
X104107800Y-64027800D01*
X104107800Y-64894373D01*
X104280053Y-64923571D01*
X104441609Y-64856662D01*
X104628169Y-64737509D01*
X104787898Y-64584250D01*
X104914659Y-64402774D01*
X105003580Y-64200055D01*
X105396420Y-64200055D01*
X105485341Y-64402774D01*
X105612102Y-64584250D01*
X105771831Y-64737509D01*
X105958391Y-64856662D01*
X106119947Y-64923571D01*
X106292200Y-64894373D01*
X106292200Y-64027800D01*
X106647800Y-64027800D01*
X106647800Y-64894373D01*
X106820053Y-64923571D01*
X106981609Y-64856662D01*
X107168169Y-64737509D01*
X107327898Y-64584250D01*
X107454659Y-64402774D01*
X107543580Y-64200055D01*
X107936420Y-64200055D01*
X108025341Y-64402774D01*
X108152102Y-64584250D01*
X108311831Y-64737509D01*
X108498391Y-64856662D01*
X108659947Y-64923571D01*
X108832200Y-64894373D01*
X108832200Y-64027800D01*
X109187800Y-64027800D01*
X109187800Y-64894373D01*
X109360053Y-64923571D01*
X109521609Y-64856662D01*
X109708169Y-64737509D01*
X109867898Y-64584250D01*
X109994659Y-64402774D01*
X110083580Y-64200055D01*
X110055323Y-64027800D01*
X109187800Y-64027800D01*
X108832200Y-64027800D01*
X107964677Y-64027800D01*
X107936420Y-64200055D01*
X107543580Y-64200055D01*
X107515323Y-64027800D01*
X106647800Y-64027800D01*
X106292200Y-64027800D01*
X105424677Y-64027800D01*
X105396420Y-64200055D01*
X105003580Y-64200055D01*
X104975323Y-64027800D01*
X104107800Y-64027800D01*
X103752200Y-64027800D01*
X102884677Y-64027800D01*
X102856420Y-64200055D01*
X102463822Y-64200055D01*
X102502861Y-64071362D01*
X102524663Y-63850000D01*
X110415337Y-63850000D01*
X110437139Y-64071362D01*
X110501708Y-64284217D01*
X110606562Y-64480385D01*
X110747672Y-64652328D01*
X110919615Y-64793438D01*
X111115783Y-64898292D01*
X111328638Y-64962861D01*
X111494533Y-64979200D01*
X111605467Y-64979200D01*
X111771362Y-64962861D01*
X111984217Y-64898292D01*
X112180385Y-64793438D01*
X112352328Y-64652328D01*
X112493438Y-64480385D01*
X112598292Y-64284217D01*
X112662861Y-64071362D01*
X112684663Y-63850000D01*
X112955337Y-63850000D01*
X112977139Y-64071362D01*
X113041708Y-64284217D01*
X113146562Y-64480385D01*
X113287672Y-64652328D01*
X113459615Y-64793438D01*
X113655783Y-64898292D01*
X113868638Y-64962861D01*
X114034533Y-64979200D01*
X114145467Y-64979200D01*
X114311362Y-64962861D01*
X114524217Y-64898292D01*
X114720385Y-64793438D01*
X114892328Y-64652328D01*
X115033438Y-64480385D01*
X115138292Y-64284217D01*
X115202861Y-64071362D01*
X115224663Y-63850000D01*
X115202861Y-63628638D01*
X115138292Y-63415783D01*
X115033438Y-63219615D01*
X114892328Y-63047672D01*
X114720385Y-62906562D01*
X114524217Y-62801708D01*
X114311362Y-62737139D01*
X114145467Y-62720800D01*
X114034533Y-62720800D01*
X113868638Y-62737139D01*
X113655783Y-62801708D01*
X113459615Y-62906562D01*
X113287672Y-63047672D01*
X113146562Y-63219615D01*
X113041708Y-63415783D01*
X112977139Y-63628638D01*
X112955337Y-63850000D01*
X112684663Y-63850000D01*
X112662861Y-63628638D01*
X112598292Y-63415783D01*
X112493438Y-63219615D01*
X112352328Y-63047672D01*
X112180385Y-62906562D01*
X111984217Y-62801708D01*
X111771362Y-62737139D01*
X111605467Y-62720800D01*
X111494533Y-62720800D01*
X111328638Y-62737139D01*
X111115783Y-62801708D01*
X110919615Y-62906562D01*
X110747672Y-63047672D01*
X110606562Y-63219615D01*
X110501708Y-63415783D01*
X110437139Y-63628638D01*
X110415337Y-63850000D01*
X102524663Y-63850000D01*
X102502861Y-63628638D01*
X102463823Y-63499945D01*
X102856420Y-63499945D01*
X102884677Y-63672200D01*
X103752200Y-63672200D01*
X103752200Y-62805627D01*
X104107800Y-62805627D01*
X104107800Y-63672200D01*
X104975323Y-63672200D01*
X105003580Y-63499945D01*
X105396420Y-63499945D01*
X105424677Y-63672200D01*
X106292200Y-63672200D01*
X106292200Y-62805627D01*
X106647800Y-62805627D01*
X106647800Y-63672200D01*
X107515323Y-63672200D01*
X107543580Y-63499945D01*
X107936420Y-63499945D01*
X107964677Y-63672200D01*
X108832200Y-63672200D01*
X108832200Y-62805627D01*
X109187800Y-62805627D01*
X109187800Y-63672200D01*
X110055323Y-63672200D01*
X110083580Y-63499945D01*
X109994659Y-63297226D01*
X109867898Y-63115750D01*
X109708169Y-62962491D01*
X109521609Y-62843338D01*
X109360053Y-62776429D01*
X109187800Y-62805627D01*
X108832200Y-62805627D01*
X108659947Y-62776429D01*
X108498391Y-62843338D01*
X108311831Y-62962491D01*
X108152102Y-63115750D01*
X108025341Y-63297226D01*
X107936420Y-63499945D01*
X107543580Y-63499945D01*
X107454659Y-63297226D01*
X107327898Y-63115750D01*
X107168169Y-62962491D01*
X106981609Y-62843338D01*
X106820053Y-62776429D01*
X106647800Y-62805627D01*
X106292200Y-62805627D01*
X106119947Y-62776429D01*
X105958391Y-62843338D01*
X105771831Y-62962491D01*
X105612102Y-63115750D01*
X105485341Y-63297226D01*
X105396420Y-63499945D01*
X105003580Y-63499945D01*
X104914659Y-63297226D01*
X104787898Y-63115750D01*
X104628169Y-62962491D01*
X104441609Y-62843338D01*
X104280053Y-62776429D01*
X104107800Y-62805627D01*
X103752200Y-62805627D01*
X103579947Y-62776429D01*
X103418391Y-62843338D01*
X103231831Y-62962491D01*
X103072102Y-63115750D01*
X102945341Y-63297226D01*
X102856420Y-63499945D01*
X102463823Y-63499945D01*
X102438292Y-63415783D01*
X102333438Y-63219615D01*
X102192328Y-63047672D01*
X102020385Y-62906562D01*
X101824217Y-62801708D01*
X101611362Y-62737139D01*
X101445467Y-62720800D01*
X101334533Y-62720800D01*
X101168638Y-62737139D01*
X100955783Y-62801708D01*
X100759615Y-62906562D01*
X100587672Y-63047672D01*
X100446562Y-63219615D01*
X100341708Y-63415783D01*
X100277139Y-63628638D01*
X100255337Y-63850000D01*
X99984663Y-63850000D01*
X99962861Y-63628638D01*
X99898292Y-63415783D01*
X99793438Y-63219615D01*
X99652328Y-63047672D01*
X99480385Y-62906562D01*
X99284217Y-62801708D01*
X99071362Y-62737139D01*
X98905467Y-62720800D01*
X98794533Y-62720800D01*
X98628638Y-62737139D01*
X98415783Y-62801708D01*
X98219615Y-62906562D01*
X98047672Y-63047672D01*
X97906562Y-63219615D01*
X97801708Y-63415783D01*
X97737139Y-63628638D01*
X97715337Y-63850000D01*
X97304200Y-63850000D01*
X97304200Y-61310000D01*
X97715337Y-61310000D01*
X97737139Y-61531362D01*
X97801708Y-61744217D01*
X97906562Y-61940385D01*
X98047672Y-62112328D01*
X98219615Y-62253438D01*
X98415783Y-62358292D01*
X98628638Y-62422861D01*
X98794533Y-62439200D01*
X98905467Y-62439200D01*
X99071362Y-62422861D01*
X99284217Y-62358292D01*
X99480385Y-62253438D01*
X99652328Y-62112328D01*
X99793438Y-61940385D01*
X99898292Y-61744217D01*
X99962861Y-61531362D01*
X99984663Y-61310000D01*
X100255337Y-61310000D01*
X100277139Y-61531362D01*
X100341708Y-61744217D01*
X100446562Y-61940385D01*
X100587672Y-62112328D01*
X100759615Y-62253438D01*
X100955783Y-62358292D01*
X101168638Y-62422861D01*
X101334533Y-62439200D01*
X101445467Y-62439200D01*
X101611362Y-62422861D01*
X101824217Y-62358292D01*
X102020385Y-62253438D01*
X102192328Y-62112328D01*
X102333438Y-61940385D01*
X102438292Y-61744217D01*
X102502861Y-61531362D01*
X102524663Y-61310000D01*
X102795337Y-61310000D01*
X102817139Y-61531362D01*
X102881708Y-61744217D01*
X102986562Y-61940385D01*
X103127672Y-62112328D01*
X103299615Y-62253438D01*
X103495783Y-62358292D01*
X103708638Y-62422861D01*
X103874533Y-62439200D01*
X103985467Y-62439200D01*
X104151362Y-62422861D01*
X104364217Y-62358292D01*
X104560385Y-62253438D01*
X104732328Y-62112328D01*
X104873438Y-61940385D01*
X104978292Y-61744217D01*
X105003822Y-61660055D01*
X105396420Y-61660055D01*
X105485341Y-61862774D01*
X105612102Y-62044250D01*
X105771831Y-62197509D01*
X105958391Y-62316662D01*
X106119947Y-62383571D01*
X106292200Y-62354373D01*
X106292200Y-61487800D01*
X106647800Y-61487800D01*
X106647800Y-62354373D01*
X106820053Y-62383571D01*
X106981609Y-62316662D01*
X107168169Y-62197509D01*
X107327898Y-62044250D01*
X107454659Y-61862774D01*
X107543580Y-61660055D01*
X107515323Y-61487800D01*
X106647800Y-61487800D01*
X106292200Y-61487800D01*
X105424677Y-61487800D01*
X105396420Y-61660055D01*
X105003822Y-61660055D01*
X105042861Y-61531362D01*
X105064663Y-61310000D01*
X107875337Y-61310000D01*
X107897139Y-61531362D01*
X107961708Y-61744217D01*
X108066562Y-61940385D01*
X108207672Y-62112328D01*
X108379615Y-62253438D01*
X108575783Y-62358292D01*
X108788638Y-62422861D01*
X108954533Y-62439200D01*
X109065467Y-62439200D01*
X109231362Y-62422861D01*
X109444217Y-62358292D01*
X109640385Y-62253438D01*
X109812328Y-62112328D01*
X109953438Y-61940385D01*
X110058292Y-61744217D01*
X110122861Y-61531362D01*
X110144663Y-61310000D01*
X110415337Y-61310000D01*
X110437139Y-61531362D01*
X110501708Y-61744217D01*
X110606562Y-61940385D01*
X110747672Y-62112328D01*
X110919615Y-62253438D01*
X111115783Y-62358292D01*
X111328638Y-62422861D01*
X111494533Y-62439200D01*
X111605467Y-62439200D01*
X111771362Y-62422861D01*
X111984217Y-62358292D01*
X112180385Y-62253438D01*
X112352328Y-62112328D01*
X112493438Y-61940385D01*
X112598292Y-61744217D01*
X112662861Y-61531362D01*
X112684663Y-61310000D01*
X112955337Y-61310000D01*
X112977139Y-61531362D01*
X113041708Y-61744217D01*
X113146562Y-61940385D01*
X113287672Y-62112328D01*
X113459615Y-62253438D01*
X113655783Y-62358292D01*
X113868638Y-62422861D01*
X114034533Y-62439200D01*
X114145467Y-62439200D01*
X114311362Y-62422861D01*
X114524217Y-62358292D01*
X114720385Y-62253438D01*
X114892328Y-62112328D01*
X115033438Y-61940385D01*
X115138292Y-61744217D01*
X115202861Y-61531362D01*
X115224663Y-61310000D01*
X115202861Y-61088638D01*
X115138292Y-60875783D01*
X115033438Y-60679615D01*
X114892328Y-60507672D01*
X114720385Y-60366562D01*
X114623200Y-60314616D01*
X114623200Y-60230857D01*
X117698509Y-57155550D01*
X117987500Y-57155550D01*
X118091005Y-57145356D01*
X118190533Y-57115164D01*
X118282258Y-57066136D01*
X118362656Y-57000156D01*
X118428636Y-56919758D01*
X118477664Y-56828033D01*
X118507856Y-56728505D01*
X118518050Y-56625000D01*
X118518050Y-55375000D01*
X118507856Y-55271495D01*
X118477664Y-55171967D01*
X118428636Y-55080242D01*
X118362656Y-54999844D01*
X118282258Y-54933864D01*
X118190533Y-54884836D01*
X118091005Y-54854644D01*
X117987500Y-54844450D01*
X117062500Y-54844450D01*
X116958995Y-54854644D01*
X116859467Y-54884836D01*
X116767742Y-54933864D01*
X116687344Y-54999844D01*
X116621364Y-55080242D01*
X116572336Y-55171967D01*
X116542144Y-55271495D01*
X116531950Y-55375000D01*
X116531950Y-56625000D01*
X116542144Y-56728505D01*
X116559668Y-56786273D01*
X113731496Y-59614447D01*
X113711147Y-59631147D01*
X113644516Y-59712337D01*
X113606288Y-59783858D01*
X113595005Y-59804967D01*
X113564516Y-59905475D01*
X113554221Y-60010000D01*
X113556800Y-60036185D01*
X113556800Y-60314615D01*
X113459615Y-60366562D01*
X113287672Y-60507672D01*
X113146562Y-60679615D01*
X113041708Y-60875783D01*
X112977139Y-61088638D01*
X112955337Y-61310000D01*
X112684663Y-61310000D01*
X112662861Y-61088638D01*
X112598292Y-60875783D01*
X112493438Y-60679615D01*
X112352328Y-60507672D01*
X112180385Y-60366562D01*
X112058200Y-60301253D01*
X112058200Y-57148587D01*
X112091005Y-57145356D01*
X112190533Y-57115164D01*
X112282258Y-57066136D01*
X112362656Y-57000156D01*
X112428636Y-56919758D01*
X112477664Y-56828033D01*
X112507856Y-56728505D01*
X112518050Y-56625000D01*
X112518050Y-55375000D01*
X112507856Y-55271495D01*
X112477664Y-55171967D01*
X112428636Y-55080242D01*
X112362656Y-54999844D01*
X112282258Y-54933864D01*
X112190533Y-54884836D01*
X112091005Y-54854644D01*
X111987500Y-54844450D01*
X111062500Y-54844450D01*
X110958995Y-54854644D01*
X110859467Y-54884836D01*
X110767742Y-54933864D01*
X110687344Y-54999844D01*
X110621364Y-55080242D01*
X110572336Y-55171967D01*
X110542144Y-55271495D01*
X110531950Y-55375000D01*
X110531950Y-56625000D01*
X110542144Y-56728505D01*
X110572336Y-56828033D01*
X110621364Y-56919758D01*
X110687344Y-57000156D01*
X110767742Y-57066136D01*
X110859467Y-57115164D01*
X110958995Y-57145356D01*
X110991800Y-57148587D01*
X110991801Y-60327978D01*
X110919615Y-60366562D01*
X110747672Y-60507672D01*
X110606562Y-60679615D01*
X110501708Y-60875783D01*
X110437139Y-61088638D01*
X110415337Y-61310000D01*
X110144663Y-61310000D01*
X110122861Y-61088638D01*
X110058292Y-60875783D01*
X109953438Y-60679615D01*
X109812328Y-60507672D01*
X109640385Y-60366562D01*
X109444217Y-60261708D01*
X109231362Y-60197139D01*
X109065467Y-60180800D01*
X108954533Y-60180800D01*
X108788638Y-60197139D01*
X108575783Y-60261708D01*
X108379615Y-60366562D01*
X108207672Y-60507672D01*
X108066562Y-60679615D01*
X107961708Y-60875783D01*
X107897139Y-61088638D01*
X107875337Y-61310000D01*
X105064663Y-61310000D01*
X105042861Y-61088638D01*
X105003823Y-60959945D01*
X105396420Y-60959945D01*
X105424677Y-61132200D01*
X106292200Y-61132200D01*
X106292200Y-60265627D01*
X106647800Y-60265627D01*
X106647800Y-61132200D01*
X107515323Y-61132200D01*
X107543580Y-60959945D01*
X107454659Y-60757226D01*
X107327898Y-60575750D01*
X107168169Y-60422491D01*
X106981609Y-60303338D01*
X106820053Y-60236429D01*
X106647800Y-60265627D01*
X106292200Y-60265627D01*
X106119947Y-60236429D01*
X105958391Y-60303338D01*
X105771831Y-60422491D01*
X105612102Y-60575750D01*
X105485341Y-60757226D01*
X105396420Y-60959945D01*
X105003823Y-60959945D01*
X104978292Y-60875783D01*
X104873438Y-60679615D01*
X104732328Y-60507672D01*
X104560385Y-60366562D01*
X104364217Y-60261708D01*
X104151362Y-60197139D01*
X103985467Y-60180800D01*
X103874533Y-60180800D01*
X103708638Y-60197139D01*
X103495783Y-60261708D01*
X103299615Y-60366562D01*
X103127672Y-60507672D01*
X102986562Y-60679615D01*
X102881708Y-60875783D01*
X102817139Y-61088638D01*
X102795337Y-61310000D01*
X102524663Y-61310000D01*
X102502861Y-61088638D01*
X102438292Y-60875783D01*
X102333438Y-60679615D01*
X102192328Y-60507672D01*
X102020385Y-60366562D01*
X101824217Y-60261708D01*
X101611362Y-60197139D01*
X101445467Y-60180800D01*
X101334533Y-60180800D01*
X101168638Y-60197139D01*
X100955783Y-60261708D01*
X100759615Y-60366562D01*
X100587672Y-60507672D01*
X100446562Y-60679615D01*
X100341708Y-60875783D01*
X100277139Y-61088638D01*
X100255337Y-61310000D01*
X99984663Y-61310000D01*
X99962861Y-61088638D01*
X99898292Y-60875783D01*
X99793438Y-60679615D01*
X99652328Y-60507672D01*
X99480385Y-60366562D01*
X99284217Y-60261708D01*
X99071362Y-60197139D01*
X98905467Y-60180800D01*
X98794533Y-60180800D01*
X98628638Y-60197139D01*
X98415783Y-60261708D01*
X98219615Y-60366562D01*
X98047672Y-60507672D01*
X97906562Y-60679615D01*
X97801708Y-60875783D01*
X97737139Y-61088638D01*
X97715337Y-61310000D01*
X97304200Y-61310000D01*
X97304200Y-60014925D01*
X97305670Y-59999999D01*
X97304200Y-59985073D01*
X97304200Y-59985064D01*
X97299798Y-59940367D01*
X97282403Y-59883025D01*
X97254157Y-59830179D01*
X97254156Y-59830177D01*
X97225663Y-59795459D01*
X97225662Y-59795458D01*
X97216142Y-59783858D01*
X97204544Y-59774340D01*
X95225666Y-57795463D01*
X95216142Y-57783858D01*
X95169822Y-57745844D01*
X95116975Y-57717597D01*
X95059633Y-57700202D01*
X95014936Y-57695800D01*
X95014926Y-57695800D01*
X95000000Y-57694330D01*
X94985074Y-57695800D01*
X90304200Y-57695800D01*
X90304200Y-50304200D01*
X91446117Y-50304200D01*
X91446117Y-53740000D01*
M02*
